<?xml version="1.0" encoding="UTF-8" standalone="no"?>
<!-- Created with Inkscape (http://www.inkscape.org/) -->

<svg
   xmlns:dc="http://purl.org/dc/elements/1.1/"
   xmlns:cc="http://creativecommons.org/ns#"
   xmlns:rdf="http://www.w3.org/1999/02/22-rdf-syntax-ns#"
   xmlns:svg="http://www.w3.org/2000/svg"
   xmlns="http://www.w3.org/2000/svg"
   xmlns:xlink="http://www.w3.org/1999/xlink"
   xmlns:sodipodi="http://sodipodi.sourceforge.net/DTD/sodipodi-0.dtd"
   xmlns:inkscape="http://www.inkscape.org/namespaces/inkscape"
   width="256"
   height="256"
   viewBox="0 0 67.733335 67.733333"
   version="1.1"
   id="svg7448"
   inkscape:version="0.92.3 (2405546, 2018-03-11)"
   sodipodi:docname="classroom-mountmode-override.svg">
  <defs
     id="defs7442">
    <linearGradient
       gradientTransform="matrix(0.19734331,0,0,-0.19823545,166.77022,195.82034)"
       y2="666.56842"
       x2="-460.2334"
       y1="370.53909"
       x1="-460.2334"
       gradientUnits="userSpaceOnUse"
       id="rect3438-6-0-6-7-2_60_-80">
      <stop
         id="stop29185"
         style="stop-color:#000000"
         offset="0" />
      <stop
         id="stop29187"
         style="stop-color:#000000;stop-opacity:0.5882"
         offset="1" />
    </linearGradient>
    <linearGradient
       gradientTransform="matrix(0.19561848,0,0,-0.19662959,164.39189,195.04925)"
       y2="668.2168"
       x2="-452.13281"
       y1="371.53421"
       x1="-452.13281"
       gradientUnits="userSpaceOnUse"
       id="rect3438-6-0-1-1_60_-262">
      <stop
         id="stop29191"
         style="stop-color:#000000"
         offset="0" />
      <stop
         id="stop29193"
         style="stop-color:#000000;stop-opacity:0.5882"
         offset="1" />
    </linearGradient>
    <linearGradient
       gradientTransform="matrix(0.19817598,0,0,-0.19817598,-75.834945,48.799836)"
       y2="-366.80859"
       x2="765.62701"
       y1="-74.489304"
       x1="765.62701"
       gradientUnits="userSpaceOnUse"
       id="XMLID_140_-06">
      <stop
         id="stop29198"
         style="stop-color:#a9cae7;stop-opacity:1"
         offset="0" />
      <stop
         id="stop29204"
         style="stop-color:#7baedb;stop-opacity:1"
         offset="0.38028651" />
      <stop
         id="stop29206"
         style="stop-color:#2c60a0;stop-opacity:1"
         offset="1" />
    </linearGradient>
    <linearGradient
       id="linearGradient7404"
       gradientUnits="userSpaceOnUse"
       x1="-460.2334"
       y1="370.53909"
       x2="-460.2334"
       y2="666.56842"
       gradientTransform="matrix(0.9954,0,0,-0.9999,607.6064,666.5718)">
      <stop
         offset="0"
         style="stop-color:#000000"
         id="stop7400" />
      <stop
         offset="1"
         style="stop-color:#000000;stop-opacity:0.5882"
         id="stop7402" />
    </linearGradient>
    <linearGradient
       id="linearGradient7411"
       gradientUnits="userSpaceOnUse"
       x1="-452.13281"
       y1="371.53421"
       x2="-452.13281"
       y2="668.2168"
       gradientTransform="matrix(0.9867,0,0,-0.9918,595.6101,662.6824)">
      <stop
         offset="0"
         style="stop-color:#000000"
         id="stop7407" />
      <stop
         offset="1"
         style="stop-color:#000000;stop-opacity:0.5882"
         id="stop7409" />
    </linearGradient>
    <linearGradient
       gradientTransform="matrix(0.9996,0,0,-0.9996,-616.0945,-74.9999)"
       y2="-366.80859"
       x2="765.62701"
       y1="-74.489304"
       x1="765.62701"
       gradientUnits="userSpaceOnUse"
       id="linearGradient7424">
      <stop
         id="stop7414"
         style="stop-color:#006cf9;stop-opacity:1"
         offset="0" />
      <stop
         id="stop7416"
         style="stop-color:#0053c2;stop-opacity:1"
         offset="0.3475" />
      <stop
         id="stop7418"
         style="stop-color:#0047a6;stop-opacity:1"
         offset="0.6063" />
      <stop
         id="stop7420"
         style="stop-color:#003884;stop-opacity:1"
         offset="0.8413" />
      <stop
         id="stop7422"
         style="stop-color:#003580;stop-opacity:1"
         offset="1" />
    </linearGradient>
    <linearGradient
       x1="12.274"
       y1="32.416"
       x2="35.391"
       gradientUnits="userSpaceOnUse"
       y2="14.203"
       id="linearGradient3435">
      <stop
         offset="0"
         style="stop-color:#ffffc8"
         id="stop3437" />
      <stop
         offset="1"
         style="stop-color:#9a91ef;stop-opacity:0"
         id="stop3439" />
    </linearGradient>
    <linearGradient
       id="linearGradient4236">
      <stop
         offset="0"
         style="stop-color:#ffffff;stop-opacity:.32673"
         id="stop4238" />
      <stop
         offset="1"
         style="stop-color:#ffffff;stop-opacity:.60396"
         id="stop4240" />
    </linearGradient>
    <linearGradient
       x1="48"
       y1="72"
       x2="48"
       y2="24"
       id="linearGradient3856"
       xlink:href="#linearGradient4081"
       gradientUnits="userSpaceOnUse"
       gradientTransform="matrix(0.26458333,0,0,0.26458333,128.37329,136.73687)" />
    <linearGradient
       id="linearGradient4081">
      <stop
         id="stop4083"
         style="stop-color:#aaaaaa;stop-opacity:1"
         offset="0" />
      <stop
         id="stop4085"
         style="stop-color:#f0f0f0;stop-opacity:1"
         offset="1" />
    </linearGradient>
    <linearGradient
       x1="27"
       y1="48"
       x2="69"
       y2="48"
       id="linearGradient3940"
       xlink:href="#linearGradient4081"
       gradientUnits="userSpaceOnUse"
       gradientTransform="matrix(0,-0.26458333,0.26458333,0,101.91495,163.1952)" />
    <filter
       inkscape:collect="always"
       style="color-interpolation-filters:sRGB"
       id="filter902"
       x="-0.030578764"
       width="1.0611575"
       y="-0.043757697"
       height="1.0875154">
      <feGaussianBlur
         inkscape:collect="always"
         stdDeviation="0.68326965"
         id="feGaussianBlur904" />
    </filter>
    <filter
       inkscape:collect="always"
       style="color-interpolation-filters:sRGB"
       id="filter2580"
       x="-0.020329606"
       width="1.0406592"
       y="-0.029287733"
       height="1.0585755">
      <feGaussianBlur
         inkscape:collect="always"
         stdDeviation="0.38349535"
         id="feGaussianBlur2582" />
    </filter>
  </defs>
  <sodipodi:namedview
     id="base"
     pagecolor="#ffffff"
     bordercolor="#666666"
     borderopacity="1.0"
     inkscape:pageopacity="0.0"
     inkscape:pageshadow="2"
     inkscape:zoom="0.91426701"
     inkscape:cx="-185.2159"
     inkscape:cy="113.60314"
     inkscape:document-units="mm"
     inkscape:current-layer="layer1"
     showgrid="false"
     fit-margin-top="0"
     fit-margin-left="0"
     fit-margin-right="0"
     fit-margin-bottom="0"
     inkscape:window-width="1920"
     inkscape:window-height="837"
     inkscape:window-x="0"
     inkscape:window-y="30"
     inkscape:window-maximized="1"
     units="px"
     showguides="true"
     inkscape:guide-bbox="true">
    <sodipodi:guide
       position="18.485328,63.172762"
       orientation="0,1"
       id="guide883"
       inkscape:locked="false" />
    <sodipodi:guide
       position="26.19295,5.7297077"
       orientation="0,1"
       id="guide885"
       inkscape:locked="false" />
  </sodipodi:namedview>
  <metadata
     id="metadata7445">
    <rdf:RDF>
      <cc:Work
         rdf:about="">
        <dc:format>image/svg+xml</dc:format>
        <dc:type
           rdf:resource="http://purl.org/dc/dcmitype/StillImage" />
        <dc:title />
      </cc:Work>
    </rdf:RDF>
  </metadata>
  <g
     inkscape:label="Capa 1"
     inkscape:groupmode="layer"
     id="layer1"
     transform="translate(-42.060823,-59.097487)">
    <g
       id="g986"
       transform="matrix(1.1408226,0,0,1.1352794,-10.692307,-12.576135)">
      <g
         transform="matrix(3.854213,0,0,3.854213,38.115617,36.877322)"
         id="g6071">
        <g
           style="fill:#666666;stroke:#ff0000;stroke-width:0.4990972;stroke-miterlimit:4;stroke-dasharray:none;stroke-opacity:0"
           transform="matrix(0.02325627,0,0,0.02325627,0.01676398,8.5624549)"
           id="Layer_2">
          <path
             style="fill:#666666;fill-opacity:1;stroke:#ff0000;stroke-width:0.4990972;stroke-miterlimit:4;stroke-dasharray:none;stroke-opacity:0"
             inkscape:connector-curvature="0"
             d="M 439.282,5 H 362 v 191 h -48 v 157 h 48 v 157 h 77.282 c 4.339,0 7.718,-3.417 7.718,-7.756 V 12.855 C 447,8.516 443.621,5 439.282,5 Z"
             id="path2950" />
        </g>
        <g
           transform="matrix(0.02325627,0,0,0.02325627,0.01676398,8.5624549)"
           id="Layer_3"
           style="fill:#b3b3b3;fill-opacity:1;stroke:#ff0000;stroke-width:0.4990972;stroke-miterlimit:4;stroke-dasharray:none;stroke-opacity:0">
          <path
             style="fill:#b3b3b3;fill-opacity:1;stroke:#ff0000;stroke-width:0.4990972;stroke-miterlimit:4;stroke-dasharray:none;stroke-opacity:0"
             inkscape:connector-curvature="0"
             d="M 363.636,195.842 H 145.402 V 38.714 h 218.235 v 157.128 z m 0,157.129 H 145.402 v 149.272 c 0,4.339 3.517,7.856 7.856,7.856 H 363.636 Z M 315.586,195.842 H 105.208 c -4.339,0 -7.856,3.517 -7.856,7.856 v 141.416 c 0,4.339 3.517,7.856 7.856,7.856 h 210.378 z"
             id="path2953" />
        </g>
        <g
           style="stroke:#ff0000;stroke-width:0.4990972;stroke-miterlimit:4;stroke-dasharray:none;stroke-opacity:0"
           transform="matrix(0.02325627,0,0,0.02325627,0.01676398,8.5624549)"
           id="Layer_4">
          <path
             style="fill:#f9e7c0;stroke:#ff0000;stroke-width:0.4990972;stroke-miterlimit:4;stroke-dasharray:none;stroke-opacity:0"
             inkscape:connector-curvature="0"
             d="m 281.832,71.412 v 16.731 c 0,1.988 -1.612,3.6 -3.6,3.6 h -47.427 c -1.988,0 -3.6,-1.612 -3.6,-3.6 V 71.412 c 0,-1.988 1.612,-3.6 3.6,-3.6 h 47.427 c 1.989,0 3.6,1.611 3.6,3.6 z m -3.6,311.748 h -47.427 c -1.988,0 -3.6,1.612 -3.6,3.6 v 16.731 c 0,1.988 1.612,3.6 3.6,3.6 h 47.427 c 1.988,0 3.6,-1.612 3.6,-3.6 V 386.76 c 0,-1.988 -1.611,-3.6 -3.6,-3.6 z m -48.05,-158.22 h -47.427 c -1.988,0 -3.6,1.612 -3.6,3.6 v 16.731 c 0,1.988 1.612,3.6 3.6,3.6 h 47.427 c 1.988,0 3.6,-1.612 3.6,-3.6 V 228.54 c 0,-1.988 -1.611,-3.6 -3.6,-3.6 z"
             id="path2956" />
        </g>
        <g
           style="fill:#803300;fill-opacity:1;stroke:#ff0000;stroke-width:0.4990972;stroke-miterlimit:4;stroke-dasharray:none;stroke-opacity:0"
           transform="matrix(0.02325627,0,0,0.02325627,0.01676398,8.5624549)"
           id="Layer_5">
          <path
             style="fill:#803300;fill-opacity:1;stroke:#ff0000;stroke-width:0.4990972;stroke-miterlimit:4;stroke-dasharray:none;stroke-opacity:0"
             inkscape:connector-curvature="0"
             d="m 276.124,125.461 h -43.21 c -4.52,0 -8.184,-3.664 -8.184,-8.184 0,-4.52 3.664,-8.184 8.184,-8.184 h 43.21 c 4.52,0 8.184,3.664 8.184,8.184 0,4.52 -3.664,8.184 -8.184,8.184 z m 8.184,306.075 c 0,-4.52 -3.664,-8.184 -8.184,-8.184 h -43.21 c -4.52,0 -8.184,3.664 -8.184,8.184 0,4.52 3.664,8.184 8.184,8.184 h 43.21 c 4.52,0 8.184,-3.664 8.184,-8.184 z m -48.05,-157.129 c 0,-4.52 -3.664,-8.184 -8.184,-8.184 h -43.21 c -4.52,0 -8.184,3.664 -8.184,8.184 0,4.52 3.664,8.184 8.184,8.184 h 43.21 c 4.52,0 8.184,-3.664 8.184,-8.184 z"
             id="path2959" />
        </g>
        <g
           style="fill:#803300;stroke:#ff0000;stroke-width:0.4990972;stroke-miterlimit:4;stroke-dasharray:none;stroke-opacity:0"
           transform="matrix(0.02325627,0,0,0.02325627,0.01676398,8.5624549)"
           id="Layer_6">
          <path
             style="fill:#803300;fill-opacity:1;stroke:#ff0000;stroke-width:0.4990972;stroke-miterlimit:4;stroke-dasharray:none;stroke-opacity:0"
             inkscape:connector-curvature="0"
             d="M 363.636,38.714 H 145.402 V 12.855 c 0,-4.339 3.517,-7.856 7.856,-7.856 H 363.636 Z M 316,196 h 48 V 185 H 145 v 11 z M 145,353 v 11 h 219 v -11"
             id="path2962" />
        </g>
        <g
           style="stroke:#ff0000;stroke-width:0.4990972;stroke-miterlimit:4;stroke-dasharray:none;stroke-opacity:0"
           transform="matrix(0.02325627,0,0,0.02325627,0.01676398,8.5624549)"
           id="Layer_7">
          <path
             style="fill:#ffb636;stroke:#ff0000;stroke-width:0.4990972;stroke-miterlimit:4;stroke-dasharray:none;stroke-opacity:0"
             inkscape:connector-curvature="0"
             d="M 271.752,171 H 170 v -7.668 C 170,158.993 166.902,155 162.563,155 h -35.5 c -4.339,0 -8.063,3.993 -8.063,8.332 v 7.42 8.729 V 196 H 280 V 178.608 C 280,174.269 276.091,171 271.752,171 Z"
             id="path2965" />
        </g>
        <path
           id="path2953-8"
           d="m 12.264943,16.952392 h 5.075309 v 3.294455 c 0,0.09576 -0.08179,0.173383 -0.182701,0.173383 h -4.892608 z"
           inkscape:connector-curvature="0"
           style="fill:#b3b3b3;fill-opacity:1;stroke:#ff0000;stroke-width:0.01160714;stroke-miterlimit:4;stroke-dasharray:none;stroke-opacity:0"
           sodipodi:nodetypes="ccsscc" />
        <g
           id="g3631"
           style="stroke:#ff0000;stroke-width:0.11707878;stroke-miterlimit:4;stroke-dasharray:none;stroke-opacity:0"
           transform="matrix(0.09913956,0,0,0.09913956,29.475277,-0.58773434)">
          <g
             style="fill:#666666;fill-opacity:1;stroke:#ff0000;stroke-width:0.89476335;stroke-miterlimit:4;stroke-dasharray:none;stroke-opacity:0"
             id="Layer_2-5"
             transform="matrix(-0.23458112,0,0,0.07298724,-87.825738,174.65622)">
            <path
               sodipodi:nodetypes="sccccccssss"
               id="path2950-7"
               d="M 439.282,5 H 362 v 191 0 l -1,157 h 1 v 157 h 77.282 c 4.339,0 7.718,-3.417 7.718,-7.756 V 12.855 C 447,8.516 443.621,5 439.282,5 Z"
               inkscape:connector-curvature="0"
               style="fill:#666666;fill-opacity:1;stroke:#ff0000;stroke-width:0.89476335;stroke-miterlimit:4;stroke-dasharray:none;stroke-opacity:0" />
          </g>
          <g
             id="Layer_4-1"
             transform="matrix(-0.23458112,0,0,0.23458112,-87.825738,92.243346)"
             style="stroke:#ff0000;stroke-width:0.4990972;stroke-miterlimit:4;stroke-dasharray:none;stroke-opacity:0">
            <path
               sodipodi:nodetypes="sssssssss"
               id="path2956-9"
               d="m 278.232,383.16 h -47.427 c -1.988,0 -3.6,1.612 -3.6,3.6 v 16.731 c 0,1.988 1.612,3.6 3.6,3.6 h 47.427 c 1.988,0 3.6,-1.612 3.6,-3.6 V 386.76 c 0,-1.988 -1.611,-3.6 -3.6,-3.6 z"
               inkscape:connector-curvature="0"
               style="fill:#f9e7c0;stroke:#ff0000;stroke-width:0.4990972;stroke-miterlimit:4;stroke-dasharray:none;stroke-opacity:0" />
          </g>
          <g
             id="Layer_5-9"
             transform="matrix(-0.23458112,0,0,0.23458112,-87.825738,92.243346)"
             style="fill:#803300;fill-opacity:1;stroke:#ff0000;stroke-width:0.4990972;stroke-miterlimit:4;stroke-dasharray:none;stroke-opacity:0">
            <path
               sodipodi:nodetypes="sssssss"
               id="path2959-7"
               d="m 284.308,431.536 c 0,-4.52 -3.664,-8.184 -8.184,-8.184 h -43.21 c -4.52,0 -8.184,3.664 -8.184,8.184 0,4.52 3.664,8.184 8.184,8.184 h 43.21 c 4.52,0 8.184,-3.664 8.184,-8.184 z"
               inkscape:connector-curvature="0"
               style="fill:#803300;fill-opacity:1;stroke:#ff0000;stroke-width:0.4990972;stroke-miterlimit:4;stroke-dasharray:none;stroke-opacity:0" />
          </g>
          <g
             style="fill:#803300;fill-opacity:1;stroke:#ff0000;stroke-width:0.4995763;stroke-miterlimit:4;stroke-dasharray:none;stroke-opacity:0"
             id="Layer_6-8"
             transform="matrix(-0.23413141,0,0,0.23458112,-88.458596,92.243346)">
            <path
               sodipodi:nodetypes="cccc"
               id="path2962-2"
               d="m 144.98434,353 v 11.00391 H 364 V 353"
               inkscape:connector-curvature="0"
               style="fill:#803300;fill-opacity:1;stroke:#ff0000;stroke-width:0.4995763;stroke-miterlimit:4;stroke-dasharray:none;stroke-opacity:0" />
          </g>
          <g
             id="Layer_7-5"
             transform="matrix(-0.23458112,0,0,0.23458112,-100.67413,131.63226)"
             style="stroke:#ff0000;stroke-width:0.4990972;stroke-miterlimit:4;stroke-dasharray:none;stroke-opacity:0">
            <path
               id="path2965-3"
               d="M 271.752,171 H 170 v -7.668 C 170,158.993 166.902,155 162.563,155 h -35.5 c -4.339,0 -8.063,3.993 -8.063,8.332 v 7.42 8.729 V 196 H 280 V 178.608 C 280,174.269 276.091,171 271.752,171 Z"
               inkscape:connector-curvature="0"
               style="fill:#ffb636;stroke:#ff0000;stroke-width:0.4990972;stroke-miterlimit:4;stroke-dasharray:none;stroke-opacity:0" />
          </g>
        </g>
      </g>
      <g
         transform="matrix(0.91306261,0,0,0.91306261,77.347863,13.164853)"
         id="g939">
        <g
           aria-label="OVERRIDE"
           transform="rotate(-29.720245,-46.600648,158.51808)"
           style="font-style:normal;font-weight:normal;font-size:14.35841751px;line-height:1.25;font-family:sans-serif;letter-spacing:0px;word-spacing:0px;fill:#000000;fill-opacity:1;stroke:none;stroke-width:0.35896063;filter:url(#filter902)"
           id="text2520">
          <text
             xml:space="preserve"
             style="font-style:normal;font-weight:normal;font-size:10.18500996px;line-height:1.25;font-family:sans-serif;letter-spacing:0px;word-spacing:0px;fill:#000000;fill-opacity:1;stroke:none;stroke-width:0.09140044;"
             x="-101.84834"
             y="84.999352"
             id="text984"
             transform="matrix(0.86634394,0.49455965,-0.49697442,0.870574,0,0)"><tspan
               sodipodi:role="line"
               id="tspan982"
               x="-101.84834"
               y="94.266441"
               style="stroke-width:0.09140044" /></text>
          <text
             xml:space="preserve"
             style="font-style:normal;font-weight:normal;font-size:10.18500996px;line-height:1.25;font-family:sans-serif;letter-spacing:0px;word-spacing:0px;fill:#000000;fill-opacity:1;stroke:none;stroke-width:0.09140044;opacity:0.99999999;"
             x="-69.551712"
             y="53.096581"
             id="text988"
             transform="matrix(0.86634394,0.49455965,-0.49697442,0.870574,0,0)"><tspan
               sodipodi:role="line"
               id="tspan986"
               x="-69.551712"
               y="62.363667"
               style="stroke-width:0.09140044;" /></text>
          <text
             xml:space="preserve"
             style="font-style:normal;font-weight:normal;font-size:10.18500996px;line-height:1.25;font-family:'Old Stamper';letter-spacing:0px;word-spacing:0px;fill:#000000;fill-opacity:1;stroke:none;stroke-width:0.09140044;-inkscape-font-specification:'Old Stamper';font-stretch:normal;font-variant:normal;"
             x="-100.66676"
             y="85.787079"
             id="text992"
             transform="matrix(0.86634394,0.49455965,-0.49697442,0.870574,0,0)"><tspan
               sodipodi:role="line"
               id="tspan990"
               x="-100.66676"
               y="95.054169"
               style="fill:#000000;fill-opacity:1;stroke-width:0.09140044;-inkscape-font-specification:'Old Stamper';font-family:'Old Stamper';font-weight:normal;font-style:normal;font-stretch:normal;font-variant:normal;" /></text>
        </g>
      </g>
    </g>
    <g
       style="font-style:normal;font-weight:normal;font-size:9.38324451px;line-height:1.25;font-family:sans-serif;letter-spacing:0px;word-spacing:0px;fill:#000000;fill-opacity:1;stroke:none;stroke-width:0.0550283"
       id="g2662"
       transform="matrix(1.2117902,-0.77120569,0.72501321,1.2889963,243.84385,67.397861)">
      <g
         id="text2556-0"
         style="font-style:normal;font-weight:normal;font-size:9.38324451px;line-height:1.25;font-family:sans-serif;letter-spacing:0px;word-spacing:0px;fill:#000000;fill-opacity:1;stroke:none;stroke-width:0.0550283;filter:url(#filter2580)"
         aria-label="OVERRIDE">
        <path
           id="path2619"
           style="font-style:normal;font-variant:normal;font-weight:normal;font-stretch:normal;font-family:'Old Stamper';-inkscape-font-specification:'Old Stamper';fill:#000000;stroke-width:0.0550283"
           d="m -133.72998,-51.091421 h 0.21533 q 0.32072,0 0.32072,0.210756 l 0.42151,-0.105378 0.055,0.05498 1.11793,-0.160358 0.31613,0.160358 0.58646,-0.160358 0.90258,0.105378 0.21534,-0.0504 0.79721,0.0504 0.21076,-0.0504 0.32071,0.105378 h 0.32072 l 0.21076,-0.160358 0.16036,0.160358 v 0.316135 q 0,0.132868 -0.26574,0.160358 l -0.32072,-0.0504 -1.53944,0.105378 -0.74681,-0.105378 h -0.21075 l -0.48108,0.105378 -0.84761,-0.105378 -0.055,0.0504 h -0.055 l -0.16035,-0.0504 -0.21076,0.0504 -0.21076,-0.0504 -0.26573,0.0504 -0.26574,-0.0504 -0.32072,0.0504 -0.37111,-0.0504 -0.26574,0.0504 -0.055,-0.0504 v -0.160359 l 0.055,-0.05498 q 0,-0.07789 0.31614,-0.105379 0,-0.265736 0.10538,-0.265736 z m 2.23585,1.278284 0.055,0.0504 v 0.05498 q 0,0.293226 -1.11793,1.168324 0,0.05498 -0.69183,0.105378 -0.42609,-0.0504 -0.42609,-0.155776 0.32071,-0.426095 1.43406,-0.957568 0.50856,-0.265736 0.74681,-0.265736 z m 1.27828,0.105378 q 0.28865,0 0.63685,0.426095 0.53148,0 0.69183,0.691831 0.29323,0 0.63685,1.699796 0,0.691831 -0.37111,0.691831 -0.26574,0 -0.26574,0.265737 l -0.53147,0.05498 h -0.64143 v 0.105378 q 0.32071,0 0.32071,0.105378 0,0.210757 -0.32071,0.210757 v 0.05498 l 0.53605,0.05498 q 0.60936,0 0.90259,-0.320716 h 0.10538 q 0,-0.160358 0.10538,-0.160358 h 0.055 v 0.371115 q 0,0.132868 -0.26574,0.536054 0,0.820118 -1.59442,1.539439 -0.29323,0 -0.85219,0.215338 h -0.055 v -0.265737 q 0.53147,-0.426094 0.53147,-0.586452 l 0.16036,-0.586453 v -0.371115 l -0.10538,-0.586453 v -0.105378 h 0.16036 v -0.05498 q -0.26573,-0.02291 -0.26573,-0.155776 v -0.160359 q 0.13286,-0.719321 0.37111,-0.797209 l 0.16036,0.0504 0.31613,-0.0504 -0.0504,-0.05498 v -0.05498 q 0,-0.316134 0.37111,-0.316134 v -0.05498 h -0.85219 v 0.105378 l 0.055,0.05498 v 0.05498 l -0.055,0.0504 h -0.0504 q -0.21534,-0.343625 -0.21534,-0.531473 l 0.10996,-0.636851 q -0.0825,-0.105378 -0.16035,-0.907169 l -0.32072,-0.316135 v -0.105378 z m -1.6494,1.007966 h 0.10538 v 0.797209 q -0.10538,0.132868 -0.16036,0.536054 l 0.10538,0.636851 -0.10538,0.316135 0.10538,0.10996 -0.10538,1.915135 0.63685,0.847607 q -0.0779,0.375697 -0.21075,0.375697 -2.02052,-0.586453 -2.02052,-1.54402 l -0.055,-0.05498 v -0.0504 l 0.16036,-0.160358 v -0.05498 q -0.42609,0 -0.58645,-0.581871 l -0.15578,-0.160358 v -0.105378 q 0.15578,-0.215338 0.15578,-0.481075 l -0.0504,-0.476493 q 0.10538,-0.160358 0.26574,-1.067527 0.8751,-0.105378 1.11792,-0.316135 0.58187,0 0.58187,-0.265736 0.21534,0 0.21534,-0.215338 z m 2.07091,6.221897 q 0.055,0.320716 0.27032,0.320716 0.63685,-0.183266 0.63685,-0.265736 l 0.63685,0.05498 0.21534,-0.05498 0.0504,0.05498 h 0.055 l 0.21076,-0.05498 0.10538,0.160358 v 0.371115 l -0.0504,0.05498 v 0.0504 l -0.32072,-0.0504 -0.42609,0.0504 -0.31614,-0.105378 h -0.26573 l -0.32072,0.105378 -0.21076,-0.0504 -0.21534,0.0504 -1.11792,-0.105378 -0.53147,0.105378 -0.26574,-0.0504 h -1.11793 q -0.26573,0 -0.26573,0.105378 l -0.74223,-0.105378 h -0.32072 l -0.10538,-0.105378 v -0.265737 l 0.4261,-0.215338 h 0.21075 l 0.4261,0.05498 0.42609,-0.05498 0.055,0.05498 v 0.0504 l -0.16035,0.160358 q 0.0504,0.215339 0.26573,0.215339 0.18327,-0.426095 1.16833,-0.426095 l 0.055,-0.05498 h 0.0504 l 0.10996,0.105378 h 0.37112 l 0.16036,-0.105378 0.26573,0.05498 z"
           inkscape:connector-curvature="0" />
        <path
           id="path2621"
           style="font-style:normal;font-variant:normal;font-weight:normal;font-stretch:normal;font-family:'Old Stamper';-inkscape-font-specification:'Old Stamper';fill:#000000;stroke-width:0.0550283"
           d="m -126.70171,-51.082258 0.6231,0.105378 h 0.26116 v 0.155777 q -0.49482,0 -0.62311,0.311553 l -1.04462,0.155777 q -0.36195,-0.128287 -0.36195,-0.206175 v -0.105379 q 0.0275,-0.07789 1.14542,-0.416931 z m 2.44202,0 0.26116,0.105378 0.52231,-0.05498 q 0.41693,0.02749 0.41693,0.155777 l 0.36195,-0.0504 h 0.72848 l 0.15578,-0.105379 h 0.21076 v 0.416932 q -0.13287,0.210756 -0.62769,0.210756 l -1.55777,-0.05498 -0.055,-0.0504 v -0.0504 l 0.15578,-0.210757 h -0.36195 v 0.0504 l 0.10538,0.160358 q -0.26116,0.155776 -0.57271,0.155776 l -0.055,-0.05498 -0.62311,0.105379 -0.77888,-0.105379 v -0.100796 h 0.36195 q 0.57271,0 0.72849,-0.366533 0,-0.07789 0.6231,-0.155777 z m 1.45697,1.250794 0.15578,0.0504 0.21075,-0.0504 q 0.23367,0.100797 0.26116,0.206175 v 0.105378 q -0.0779,0.46733 -0.47191,0.46733 -0.46733,0.439839 -0.46733,0.829281 0,0.261154 -0.31156,1.044619 0,0.545217 -0.26115,1.507366 h -0.15578 v -0.05498 l 0.10538,-0.311553 q -0.20617,-0.284063 -0.20617,-0.572707 v -0.723903 q 0.36195,-0.210756 0.36195,-1.356172 v -0.100797 l 0.15577,-0.05498 v -0.100796 q -0.28406,0 -0.6231,-0.471911 v -0.0504 l 0.20617,-0.261154 h 0.21076 z m -3.22549,0.100797 1.25079,0.05498 0.0504,0.0504 v 0.261155 l -0.31155,0.361951 v 0.105378 l 0.10538,0.105378 -0.055,0.361952 q 0.18326,1.223304 0.57271,1.663143 0.18326,0.444421 0.31613,1.612745 l 0.1008,0.155777 q -0.12829,1.145415 -0.46733,1.562347 -0.12829,0.128286 -0.77889,0.206174 l -0.5223,-0.155776 v -0.361951 q 0,-0.311553 -0.20618,-0.572708 V -44.4251 h 0.41693 v -0.0504 q -0.23824,0 -0.41693,-0.155776 l 0.15578,-0.261155 q -0.36654,0 -0.36654,-0.261155 l -0.5727,-1.612745 q 0.33904,-0.256573 0.62768,-0.256573 v -0.105378 h -0.52231 q -0.51772,-0.884261 -0.51772,-1.718124 l -0.57271,-0.467329 v -0.0504 q 0,-0.105379 0.25657,-0.105379 l 0.055,-0.155776 0.36195,0.0504 z m 2.24043,0.366533 v 0.100796 l 0.15578,-0.0504 v -0.0504 z m -2.4466,2.652782 v 0.0504 h 0.67808 l 0.31155,-0.206174 h -0.5223 q -0.23367,0.155776 -0.46733,0.155776 z m 1.09043,0.361951 h 0.15578 v -0.100796 h -0.0504 z m -1.9243,3.85776 0.41693,0.05498 0.31156,-0.05498 0.57271,0.05498 0.41693,-0.05498 0.0504,0.05498 v 0.0504 q -0.28407,0.210757 -0.46733,0.210757 v 0.155776 h 0.31155 q 0.21075,0 0.98964,-0.416931 l 0.46733,0.0504 0.52231,-0.0504 0.26115,0.100797 1.14084,-0.155777 q 0.47191,0.07789 0.47191,0.210757 v 0.416931 h -0.36654 l -0.20617,-0.05498 -0.21076,0.105378 -0.57271,-0.0504 -0.41693,0.0504 -1.04003,-0.105378 -1.29661,0.05498 h -0.10538 l -0.10538,-0.105378 q -0.62311,0.105378 -1.56235,0.105378 h -0.31155 v -0.155777 h 0.15578 v -0.105378 q 0,-0.105378 -0.15578,-0.105378 v -0.105378 z m -0.36195,0.210757 v 0.155776 h 0.36195 v -0.105378 z"
           inkscape:connector-curvature="0" />
        <path
           id="path2623"
           style="font-style:normal;font-variant:normal;font-weight:normal;font-stretch:normal;font-family:'Old Stamper';-inkscape-font-specification:'Old Stamper';fill:#000000;stroke-width:0.0550283"
           d="m -116.8099,-51.160146 0.47191,0.0504 h 0.15577 l 0.10538,0.105378 v 0.371115 q 0,0.100797 -0.41693,0.155777 v -0.05498 q 0,-0.128287 0.21076,-0.155777 v -0.261155 l -0.78805,0.316135 q -0.57729,0 -0.57729,0.155777 l -0.63227,-0.05498 h -0.41693 l -0.31613,0.105378 -0.47192,-0.105378 -0.94382,0.105378 -0.16036,-0.105378 -0.36653,0.05498 h -0.0504 l -0.21075,-0.05498 -0.15578,0.05498 q -0.52689,-0.03207 -0.52689,-0.155777 v -0.160358 l 0.10538,-0.105378 0.0504,0.160358 h 0.055 q 0.15578,-0.210757 0.57729,-0.210757 v -0.05498 l 0.52231,0.05498 h 1.20956 l 0.73307,-0.105378 0.47191,0.0504 z m -1.56235,1.328682 0.055,0.05498 v 0.0504 l -0.10538,0.316135 v 0.05498 l 0.10538,0.100796 h 0.10538 q 0,-0.219919 0.21075,-0.416931 l 0.52231,0.0504 0.57729,-0.0504 0.055,0.0504 v 0.421513 l 0.0504,1.154579 q -0.27032,0.261155 -0.47191,0.261155 l -0.36653,-0.522309 0.0504,-0.160359 -0.57729,-0.522309 v -0.05498 h -0.15577 l -0.21076,0.05498 q -0.26115,-0.07331 -0.26115,-0.366533 v -0.265737 q 0,-0.137449 0.41693,-0.210756 z m -1.99302,0.105378 0.83844,0.265737 0.26574,-0.160359 0.26115,0.316135 v 0.261155 q 0,0.178685 -0.15578,0.366533 v 0.210756 l 0.0504,0.526892 q 0,0.430676 -0.42151,0.577289 l -0.31155,0.210757 q -0.47191,0 -0.63227,0.261154 l -0.36654,0.0504 v 0.05498 q 0.26116,0.21992 0.26116,0.366533 h 0.055 q 0,-0.233664 0.47191,-0.261154 0,-0.210757 0.36653,-0.210757 l 0.47191,-0.316134 h 0.055 l 0.26116,0.577289 -0.36653,1.259957 0.0504,0.210757 -0.0504,0.0504 v 0.05498 l 0.10537,0.366533 -0.055,0.0504 v 0.05498 l 0.055,0.0504 v 0.160359 h -0.055 l 0.055,0.366533 v 0.627687 q 0,0.123705 -0.9484,0.210757 l -0.47191,-0.261155 h -0.0504 l -0.63227,0.210756 q -0.33446,-0.137449 -0.36653,-0.265736 v -0.155776 q 0,-0.13745 0.36653,-0.210757 l -0.0504,-0.261155 0.15578,-0.471911 -0.15578,-0.526891 q 0.10538,-0.201593 0.10538,-0.57729 v -0.311553 l -0.10538,-0.788046 0.10538,-0.577289 -0.10538,-0.577289 0.10538,-0.737648 q -0.005,-0.178685 -0.57729,-0.678086 0.59562,-0.371115 1.41574,-0.371115 z m 2.30915,1.837247 h 0.16036 q 0.15578,0.641433 0.31155,2.258759 v 0.210757 l -0.26115,0.261155 h -0.0504 q -0.38486,-0.2749 -0.68267,-0.943823 l -0.21075,-0.210756 v -0.05498 q 0,-0.288645 0.41693,-0.471911 l 0.10538,-0.206175 -0.0504,-0.05498 v -0.0504 z m 1.10418,2.625292 q 0.13745,0 0.26116,0.733066 l -0.10538,0.316135 v 0.838444 l -0.15578,0.160358 -0.84302,-0.160358 -0.94382,0.105379 v -0.0504 q 0.0641,-0.471911 0.16035,-0.471911 l 0.26116,0.0504 q 0,-0.210756 0.21075,-0.210756 l 0.15578,0.05498 q 0.31614,-0.251992 0.63227,-0.998803 z m 0.71016,2.744416 h 0.0504 l 0.15578,0.155777 v 0.421513 l -0.10538,0.105378 h -0.41693 l -0.47191,-0.0504 -0.055,0.0504 -0.52231,-0.0504 h -0.055 l -1.36076,0.0504 -0.055,-0.0504 h -0.0504 l -0.26573,0.0504 -0.52231,-0.105378 -0.42151,0.105378 -0.36654,-0.0504 -0.31613,0.0504 -0.21076,-0.0504 -0.41693,0.0504 -0.21076,-0.155777 0.0504,-0.05498 v -0.155776 l -0.0504,-0.160358 h 0.0504 l 0.26574,-0.100797 h 0.21075 q 0.52231,0 0.52231,0.155777 v 0.0504 h 0.10538 v -0.0504 l -0.0504,-0.05498 v -0.0504 l 0.15578,-0.0504 0.57729,0.0504 0.0504,-0.0504 h 0.055 l 0.62769,0.100797 0.42151,-0.100797 0.0504,0.0504 0.26573,-0.0504 h 0.0504 l 0.15578,0.100797 0.21075,-0.0504 0.055,0.0504 h 0.0504 l 0.055,-0.0504 h 0.0504 l 0.31614,0.105379 q 0.23366,-0.105379 0.68266,-0.105379 h 0.52231 z"
           inkscape:connector-curvature="0" />
        <path
           id="path2625"
           style="font-style:normal;font-variant:normal;font-weight:normal;font-stretch:normal;font-family:'Old Stamper';-inkscape-font-specification:'Old Stamper';fill:#000000;stroke-width:0.0550283"
           d="m -114.56489,-51.091421 0.10538,0.105378 h 0.15577 l 0.16036,-0.05498 0.26116,0.05498 h 0.26573 l 0.42152,-0.105378 0.21075,0.155776 0.47191,-0.0504 h 0.10538 v 0.0504 l 0.37112,-0.0504 h 0.84302 l 0.31614,-0.105378 q 0.65518,0.0504 0.73765,0.155776 l 0.21075,-0.155776 q 0.57729,0.0504 0.57729,0.155776 v 0.476493 h -0.0504 l -0.42151,-0.05498 -0.52689,0.105379 -0.31614,-0.0504 h -0.055 l -0.36653,0.0504 -1.63565,-0.105379 -0.47191,0.05498 -0.52689,-0.05498 -0.21076,0.05498 -0.52689,-0.05498 -0.42152,0.05498 -0.16035,-0.05498 -0.31614,0.105379 -0.47191,-0.0504 h -0.26574 l -0.15577,-0.160358 v -0.155776 q 0,-0.183267 1.05378,-0.265737 l 0.26115,0.05498 z m 0.4994,1.264539 h 0.31614 l 0.15577,0.160358 v 0.155776 q -0.0779,0.160359 -0.73765,0.371115 0,0.155777 -0.57729,0.155777 h -0.73764 l -0.26574,-0.0504 v -0.160358 h 0.10538 v -0.0504 q -0.36653,0 -0.36653,-0.371115 l 0.15577,-0.0504 0.94841,0.105378 q 1.00338,-0.105378 1.00338,-0.265736 z m 1.10418,0.105378 0.16036,0.160358 -0.055,0.366533 0.10538,0.371115 h 0.10538 l 0.055,-0.265737 -0.16036,-0.366533 0.055,-0.05498 h 0.0504 l 0.21075,0.160359 q 0.29323,-0.265737 0.58187,-0.265737 1.15916,0.581871 1.15916,1.264539 l -0.055,1.003384 -0.63227,0.632269 h -0.21075 l -0.15578,-0.05498 -0.26573,0.05498 h -0.68267 l -0.16036,-0.105378 0.16036,-0.843026 -0.10538,-0.687249 0.0504,-0.210757 q -0.0504,-0.421512 -0.47191,-0.737647 v -0.105378 z m -0.63227,0.526891 0.055,0.05498 v 0.788046 l -0.16036,0.792628 q 0.21076,0.394023 0.21076,0.788045 -0.12829,1.026293 -0.26115,1.369918 l 0.0504,0.316134 -0.0504,0.160358 q 0.10537,0 0.31613,1.159161 0.15578,0 0.26115,0.210756 v 0.105379 l -0.15577,0.155776 h -0.16036 l -0.68267,0.05498 -0.52689,-0.105378 -1.26454,0.155776 q -0.26573,-0.07789 -0.26573,-0.155776 v -0.05498 q 0,-0.316135 0.47649,-0.471911 0.23825,-0.63227 0.36653,-0.63227 v -0.160358 l -0.21075,-0.0504 0.055,-0.265737 v -0.0504 q -0.21076,0 -0.21076,-0.421513 l 0.0504,-0.265736 -0.0504,-0.682668 0.0504,-0.371115 -0.0504,-0.0504 v -0.05498 l 0.10538,-0.737647 v -0.788046 l -0.055,-0.371115 h 1.53027 q 0.21076,0 0.57729,-0.421513 z m 0.63227,2.529078 h 0.10538 q 0.13287,0.160358 0.26574,0.160358 v 0.0504 q 0,0.105378 -0.16036,0.105378 l -0.0504,0.05498 v 0.0504 h 0.63227 l 0.36653,-0.316135 0.055,0.05498 v 0.0504 l -0.16036,0.160358 v 0.0504 q 1.0263,0 1.26454,0.687249 l 0.055,0.261155 -0.055,0.160358 0.055,0.155776 -0.10538,0.421513 v 0.265737 l 0.15578,0.155776 h 0.10538 q 0.18327,0 0.37111,-0.155776 h 0.10538 l 0.0504,0.210756 q -0.23825,0.526891 -1.05378,0.948404 l -0.15578,-0.05498 -0.26574,0.05498 q -1.26453,-0.293226 -1.26453,-1.108762 l 0.055,-0.210756 q -0.0779,-0.316135 -0.16036,-0.316135 l 0.055,-0.526891 q 0,-0.737648 -0.42152,-0.737648 l -0.055,-0.261155 v -0.05498 z m 0.79263,2.529077 v 0.316135 h 0.0504 q 0,-0.471911 0.73764,-0.471911 0,-0.210757 0.37112,-0.210757 0.15578,0 0.15578,-0.105378 v -0.160358 h -0.63227 q -0.28865,0 -0.31614,0.265736 -0.23366,0 -0.36653,0.366533 z m 0.49482,1.65398 h 0.21075 q 0.10538,0 0.10538,0.155777 h 0.21076 l -0.055,-0.0504 v -0.05498 l 0.055,-0.0504 1.47529,0.155777 0.10538,-0.105378 h 0.0504 l 0.10538,0.105378 v 0.371115 l -0.10538,0.105378 h -0.15578 l -0.21075,-0.05498 -0.42151,0.105378 -2.21295,-0.105378 -0.31613,0.05498 -0.73765,-0.05498 -0.68725,0.05498 -0.15578,-0.05498 -0.055,0.05498 h -0.0504 l -0.16036,-0.05498 -0.47191,0.105378 q -0.4765,-0.02749 -0.4765,-0.105378 l -0.26115,0.05498 h -0.31614 l -0.10537,-0.105378 v -0.210757 q 0.31613,-0.265736 0.9988,-0.265736 v 0.05498 q 0,0.210756 0.26573,0.210756 l 1.10419,-0.210756 0.31613,0.0504 0.37111,-0.0504 0.21076,0.0504 1.20956,-0.105378 0.055,0.05498 z"
           inkscape:connector-curvature="0" />
        <path
           id="path2627"
           style="font-style:normal;font-variant:normal;font-weight:normal;font-stretch:normal;font-family:'Old Stamper';-inkscape-font-specification:'Old Stamper';fill:#000000;stroke-width:0.0550283"
           d="m -107.91232,-51.091421 0.10538,0.105378 h 0.15578 l 0.16036,-0.05498 0.26115,0.05498 h 0.26574 l 0.42151,-0.105378 0.21076,0.155776 0.47191,-0.0504 h 0.10538 v 0.0504 l 0.37111,-0.0504 h 0.84303 l 0.31613,-0.105378 q 0.65518,0.0504 0.73765,0.155776 l 0.21076,-0.155776 q 0.57729,0.0504 0.57729,0.155776 v 0.476493 h -0.0504 l -0.42152,-0.05498 -0.52689,0.105379 -0.31613,-0.0504 h -0.055 l -0.36653,0.0504 -1.63566,-0.105379 -0.47191,0.05498 -0.52689,-0.05498 -0.21076,0.05498 -0.52689,-0.05498 -0.42151,0.05498 -0.16036,-0.05498 -0.31613,0.105379 -0.47191,-0.0504 h -0.26574 l -0.15578,-0.160358 v -0.155776 q 0,-0.183267 1.05378,-0.265737 l 0.26116,0.05498 z m 0.49941,1.264539 h 0.31613 l 0.15578,0.160358 v 0.155776 q -0.0779,0.160359 -0.73765,0.371115 0,0.155777 -0.57729,0.155777 h -0.73765 l -0.26573,-0.0504 v -0.160358 h 0.10537 v -0.0504 q -0.36653,0 -0.36653,-0.371115 l 0.15578,-0.0504 0.9484,0.105378 q 1.00339,-0.105378 1.00339,-0.265736 z m 1.10418,0.105378 0.16035,0.160358 -0.055,0.366533 0.10538,0.371115 h 0.10538 l 0.055,-0.265737 -0.16036,-0.366533 0.055,-0.05498 h 0.0504 l 0.21076,0.160359 q 0.29322,-0.265737 0.58187,-0.265737 1.15916,0.581871 1.15916,1.264539 l -0.055,1.003384 -0.63227,0.632269 h -0.21076 l -0.15577,-0.05498 -0.26574,0.05498 h -0.68267 l -0.16036,-0.105378 0.16036,-0.843026 -0.10538,-0.687249 0.0504,-0.210757 q -0.0504,-0.421512 -0.47191,-0.737647 v -0.105378 z m -0.63227,0.526891 0.055,0.05498 v 0.788046 l -0.16036,0.792628 q 0.21075,0.394023 0.21075,0.788045 -0.12828,1.026293 -0.26115,1.369918 l 0.0504,0.316134 -0.0504,0.160358 q 0.10538,0 0.31613,1.159161 0.15578,0 0.26116,0.210756 v 0.105379 l -0.15578,0.155776 h -0.16036 l -0.68266,0.05498 -0.52689,-0.105378 -1.26454,0.155776 q -0.26574,-0.07789 -0.26574,-0.155776 v -0.05498 q 0,-0.316135 0.47649,-0.471911 0.23825,-0.63227 0.36654,-0.63227 v -0.160358 l -0.21076,-0.0504 0.055,-0.265737 v -0.0504 q -0.21076,0 -0.21076,-0.421513 l 0.0504,-0.265736 -0.0504,-0.682668 0.0504,-0.371115 -0.0504,-0.0504 v -0.05498 l 0.10538,-0.737647 v -0.788046 l -0.055,-0.371115 h 1.53028 q 0.21075,0 0.57729,-0.421513 z m 0.63227,2.529078 h 0.10537 q 0.13287,0.160358 0.26574,0.160358 v 0.0504 q 0,0.105378 -0.16036,0.105378 l -0.0504,0.05498 v 0.0504 h 0.63227 l 0.36654,-0.316135 0.055,0.05498 v 0.0504 l -0.16036,0.160358 v 0.0504 q 1.02629,0 1.26454,0.687249 l 0.055,0.261155 -0.055,0.160358 0.055,0.155776 -0.10538,0.421513 v 0.265737 l 0.15578,0.155776 h 0.10537 q 0.18327,0 0.37112,-0.155776 h 0.10538 l 0.0504,0.210756 q -0.23824,0.526891 -1.05378,0.948404 l -0.15577,-0.05498 -0.26574,0.05498 q -1.26454,-0.293226 -1.26454,-1.108762 l 0.055,-0.210756 q -0.0779,-0.316135 -0.16036,-0.316135 l 0.055,-0.526891 q 0,-0.737648 -0.42151,-0.737648 l -0.055,-0.261155 v -0.05498 z m 0.79262,2.529077 v 0.316135 h 0.0504 q 0,-0.471911 0.73765,-0.471911 0,-0.210757 0.37111,-0.210757 0.15578,0 0.15578,-0.105378 v -0.160358 h -0.63227 q -0.28864,0 -0.31613,0.265736 -0.23367,0 -0.36654,0.366533 z m 0.49482,1.65398 h 0.21076 q 0.10538,0 0.10538,0.155777 h 0.21075 l -0.055,-0.0504 v -0.05498 l 0.055,-0.0504 1.4753,0.155777 0.10538,-0.105378 h 0.0504 l 0.10537,0.105378 v 0.371115 l -0.10537,0.105378 h -0.15578 l -0.21076,-0.05498 -0.42151,0.105378 -2.21294,-0.105378 -0.31614,0.05498 -0.73765,-0.05498 -0.68724,0.05498 -0.15578,-0.05498 -0.055,0.05498 h -0.0504 l -0.16036,-0.05498 -0.47191,0.105378 q -0.47649,-0.02749 -0.47649,-0.105378 l -0.26116,0.05498 h -0.31613 l -0.10538,-0.105378 v -0.210757 q 0.31614,-0.265736 0.9988,-0.265736 v 0.05498 q 0,0.210756 0.26574,0.210756 l 1.10418,-0.210756 0.31613,0.0504 0.37112,-0.0504 0.21076,0.0504 1.20955,-0.105378 0.055,0.05498 z"
           inkscape:connector-curvature="0" />
        <path
           id="path2629"
           style="font-style:normal;font-variant:normal;font-weight:normal;font-stretch:normal;font-family:'Old Stamper';-inkscape-font-specification:'Old Stamper';fill:#000000;stroke-width:0.0550283"
           d="m -101.3193,-51.123493 0.73764,0.210757 0.742232,-0.105379 0.265736,0.05498 0.320717,-0.105378 0.0504,0.0504 v 0.426095 q 0,0.105378 -0.160358,0.105378 l -0.526891,-0.05498 -0.05498,0.05498 h -0.0504 l -0.320716,-0.05498 -0.42151,0.05498 -0.16036,-0.05498 -0.84761,0.05498 h -0.31613 l -0.21534,-0.05498 -0.73765,0.105379 -0.055,-0.0504 v -0.371114 q 0,-0.128287 0.53147,-0.160359 l 0.95299,0.05498 q 0,-0.09163 0.26574,-0.160358 z m 0.14203,1.314937 h 0.37111 l 0.16036,0.105379 0.0504,-0.05498 h 0.055 l 0.055,0.05498 h 0.0504 l 0.37111,-0.105379 q 0.316135,0.2749 0.316135,0.476493 -0.526895,0 -0.526895,0.63227 l -0.10537,0.371114 v 0.426095 q 0,0.403186 0.21075,0.476493 l -0.055,0.265736 v 0.526891 l 0.055,0.476493 -0.21075,0.586453 0.26573,1.108762 -0.055,0.476493 q 0.371117,0.265737 0.371117,0.426095 -0.174103,0.421513 -0.371117,0.421513 l -0.53147,-0.261155 -0.52689,0.105378 -0.47649,-0.105378 -0.53148,0.155776 q -0.449,0 -0.63685,-0.316134 v -0.05498 l 0.10538,-0.105378 h 0.26574 q 0.21075,-0.710158 0.21075,-1.589837 h 0.21534 l -0.055,-0.261155 q 0,-0.160358 0.37112,-0.160358 v -0.05498 q -0.63686,0 -0.63686,-0.371115 v -0.581871 l -0.0504,-0.581871 0.10537,-0.531473 -0.055,-0.210756 0.055,-0.476493 v -0.316135 l -0.47649,-0.476493 v -0.05498 q 0,-0.160358 1.53486,-0.316134 z m -0.31614,4.288436 q 0,0.160358 -0.16036,0.160358 v 0.0504 q 0.50857,0 0.74223,0.10996 l 0.31614,-0.05498 h 0.10996 v -0.265737 z m -0.0641,3.051387 q 0.10538,0 0.10538,0.155777 h 0.16036 l 0.21075,-0.155777 0.52689,0.0504 0.37112,-0.0504 0.47649,0.0504 0.481075,-0.0504 0.0504,0.0504 v 0.265736 q 0,0.105378 -0.581871,0.160358 l 0.0504,0.0504 v 0.05498 l -0.0504,0.0504 h -0.160358 l -0.316136,-0.0504 -0.16036,0.105378 -0.37111,-0.05498 h -0.37112 l -0.26573,0.05498 -1.32411,-0.160358 -0.26115,0.105378 -0.055,-0.0504 v -0.105379 q 0,-0.380278 0.74223,-0.476493 z"
           inkscape:connector-curvature="0" />
        <path
           id="path2631"
           style="font-style:normal;font-variant:normal;font-weight:normal;font-stretch:normal;font-family:'Old Stamper';-inkscape-font-specification:'Old Stamper';fill:#000000;stroke-width:0.0550283"
           d="m -98.112142,-51.082258 q 0.52231,0.0504 0.52231,0.155777 0,0.105378 -0.155777,0.105378 v 0.0504 l 0.100797,0.105378 h 0.05498 q 0.517727,0 0.517727,-0.155776 0,-0.210757 0.105379,-0.210757 h 0.155776 q 0.105378,0 0.105378,0.155777 h 0.256573 l 0.05498,-0.155777 0.311553,0.05498 0.517728,-0.05498 0.261155,0.155777 q 0.893424,-0.0504 1.095017,-0.155777 l 0.46733,0.05498 h 0.100796 l 0.471912,-0.05498 q 0.311553,0.06873 0.311553,0.155777 v 0.316135 q 0,0.100796 -0.623106,0.155776 l -0.261155,-0.05498 -0.52231,0.05498 -1.401988,-0.05498 h -0.05498 q -0.60478,0 -0.829281,0.105379 l -0.311553,-0.105379 h -0.783464 q -0.100797,0 -0.100797,-0.155776 h -0.05498 l -0.256573,0.210756 -0.627688,-0.105378 -0.467329,0.0504 h -0.206175 l -0.105378,-0.100796 v -0.210757 l 0.778882,-0.261155 0.311553,0.105379 q 0.261155,-0.03665 0.261155,-0.155777 z m -0.623106,1.337846 0.0504,0.0504 v 0.05498 q -0.02291,0.142031 -0.467329,0.416931 h -0.0504 l -0.210756,-0.210756 q 0,-0.160359 0.678086,-0.311553 z m 1.8739,0 h 0.0504 l 0.105378,0.105378 v 0.0504 l -0.155776,0.261155 0.0504,1.301192 -0.155776,0.416931 v 0.0504 l 0.206174,0.623106 -0.206174,0.572707 0.206174,0.361952 -0.155776,1.200395 0.155776,0.256573 v 0.105379 l -0.0504,0.311553 0.0504,0.05498 v 0.0504 l -0.0504,0.311553 v 0.105378 l 0.0504,0.256573 -0.88426,0.160358 -0.93466,-0.05498 -0.361951,0.05498 q -0.366533,-0.04124 -0.366533,-0.366533 l 0.623106,-0.311553 h 0.05498 q -0.229083,-0.279481 -0.366533,-0.833862 l 0.05498,-0.829281 v -0.311553 l -0.105378,-0.471911 q 0.348206,0 0.623106,-0.311553 0.522309,0 0.522309,-0.256573 0.43984,0 0.568127,-0.261155 0.316134,0 0.316134,-0.311553 h -0.05498 q -0.449003,0 -0.673504,0.311553 -0.265736,0 -0.471911,0.261155 -0.421513,0 -0.673505,0.256573 h -0.155776 v -0.0504 l 0.206175,-1.195813 -0.0504,-0.366533 0.0504,-0.155777 -0.100797,-0.728484 h 0.0504 q 0.261155,0 0.623107,-0.361952 l 0.261154,-0.155776 h 0.0504 l 0.366533,0.105378 q 0.471911,0 0.728484,-0.210756 z m 0.778882,0 h 0.105379 q 0.636851,0.522309 1.040037,0.522309 v 0.100797 h -0.105378 v 0.105378 h 0.0504 l 0.261155,-0.0504 q 0.435258,0.407768 0.728484,1.246212 0.242828,0 0.311553,0.778882 l -0.0504,0.572708 0.0504,0.05498 v 0.0504 l -0.0504,0.206175 0.0504,0.210757 q -0.238246,1.122507 -0.728484,1.713541 0,0.114542 -0.46733,0.366533 -0.265736,0.46733 -0.884261,0.46733 l -0.416931,0.155776 q -0.261155,0 -0.261155,-0.467329 0,-0.142032 0.52231,-0.206175 v -0.105378 h 0.0504 l -0.0504,-0.261155 v -0.623106 l -0.0504,-0.522309 q 0.329879,-0.32988 0.412349,-0.623107 0.160358,0 0.160358,-0.105378 -0.100796,-0.233665 -0.210756,-0.256573 l -0.155777,0.155777 0.0504,0.206174 h -0.206175 v -0.261154 q 0,-0.256573 -0.105378,-0.256573 l 0.05498,-0.261155 v -0.210757 h 0.0504 l 0.0504,0.05498 h 0.05498 l 0.0504,-0.05498 v -0.0504 l -0.155776,-0.261155 0.105378,-0.728484 -0.366533,-1.195814 q -0.206175,0 -0.206175,-0.100796 v -0.105379 z m 1.301193,1.040037 -0.05498,0.05498 v 0.0504 h 0.261154 v -0.0504 z m -2.652783,4.787837 v 0.256573 l 0.100797,0.105378 h 0.05498 v -0.105378 l -0.05498,-0.256573 z m -0.155776,1.420315 0.0504,0.155777 h 0.105378 l 0.155777,-0.100797 h 0.105378 l 0.155776,0.100797 h 0.673505 l 0.210756,-0.0504 0.155777,0.0504 v -0.0504 l 0.100796,-0.105379 h 0.416932 q 0.187848,0.224502 0.678086,0.471912 h 0.256573 v -0.105379 q 0,-0.105378 -0.256573,-0.105378 v -0.261155 l 0.416931,0.05498 0.568126,-0.05498 0.316135,0.105379 h 0.206174 l 0.361952,-0.0504 0.05498,0.0504 v 0.416931 l -0.105378,0.155776 -0.261155,-0.0504 h -0.985058 l -0.316134,-0.05498 -0.256573,0.05498 -0.261155,-0.05498 -0.0504,0.05498 v 0.0504 l -0.783465,-0.105378 -0.256573,0.105378 -0.572708,-0.0504 h -0.210756 l -0.256573,0.0504 -0.316135,-0.0504 h -0.673504 l -0.261155,0.0504 -0.311553,-0.0504 h -0.155777 l -0.522309,0.0504 -0.0504,-0.0504 v -0.366533 l 0.105378,-0.105378 h 0.361951 l 0.311553,-0.0504 0.155777,0.0504 0.471911,-0.0504 0.155776,0.0504 q 0,-0.100797 0.311554,-0.155777 z m 2.547404,0.05498 0.105378,0.100797 -0.05498,0.05498 h -0.0504 l -0.105378,-0.105378 0.05498,-0.0504 z m 0.833862,0.100797 v 0.160358 h 0.100797 v -0.05498 z"
           inkscape:connector-curvature="0" />
        <path
           id="path2633"
           style="font-style:normal;font-variant:normal;font-weight:normal;font-stretch:normal;font-family:'Old Stamper';-inkscape-font-specification:'Old Stamper';fill:#000000;stroke-width:0.0550283"
           d="m -88.128697,-51.160146 0.471911,0.0504 h 0.155777 l 0.105378,0.105378 v 0.371115 q 0,0.100797 -0.416931,0.155777 v -0.05498 q 0,-0.128287 0.210756,-0.155777 v -0.261155 l -0.788046,0.316135 q -0.577289,0 -0.577289,0.155777 l -0.63227,-0.05498 h -0.416931 l -0.316135,0.105378 -0.471911,-0.105378 -0.943822,0.105378 -0.160359,-0.105378 -0.366533,0.05498 h -0.0504 l -0.210756,-0.05498 -0.155777,0.05498 q -0.526891,-0.03207 -0.526891,-0.155777 v -0.160358 l 0.105378,-0.105378 0.0504,0.160358 h 0.05498 q 0.155776,-0.210757 0.577289,-0.210757 v -0.05498 l 0.522309,0.05498 h 1.209559 l 0.733066,-0.105378 0.471912,0.0504 z m -1.562347,1.328682 0.05498,0.05498 v 0.0504 l -0.105378,0.316135 v 0.05498 l 0.105378,0.100796 h 0.105378 q 0,-0.219919 0.210757,-0.416931 l 0.522309,0.0504 0.57729,-0.0504 0.05498,0.0504 v 0.421513 l 0.0504,1.154579 q -0.270318,0.261155 -0.471911,0.261155 l -0.366533,-0.522309 0.0504,-0.160359 -0.577289,-0.522309 v -0.05498 h -0.155777 l -0.210756,0.05498 q -0.261155,-0.07331 -0.261155,-0.366533 v -0.265737 q 0,-0.137449 0.416931,-0.210756 z m -1.993023,0.105378 0.838444,0.265737 0.265737,-0.160359 0.261154,0.316135 v 0.261155 q 0,0.178685 -0.155776,0.366533 v 0.210756 l 0.0504,0.526892 q 0,0.430676 -0.421513,0.577289 l -0.311553,0.210757 q -0.471911,0 -0.632269,0.261154 l -0.366533,0.0504 v 0.05498 q 0.261154,0.21992 0.261154,0.366533 h 0.05498 q 0,-0.233664 0.471912,-0.261154 0,-0.210757 0.366533,-0.210757 l 0.471911,-0.316134 h 0.05498 l 0.261155,0.577289 -0.366533,1.259957 0.0504,0.210757 -0.0504,0.0504 v 0.05498 l 0.105378,0.366533 -0.05498,0.0504 v 0.05498 l 0.05498,0.0504 v 0.160359 h -0.05498 l 0.05498,0.366533 v 0.627687 q 0,0.123705 -0.948404,0.210757 l -0.471912,-0.261155 h -0.0504 l -0.632269,0.210756 q -0.334462,-0.137449 -0.366533,-0.265736 v -0.155776 q 0,-0.13745 0.366533,-0.210757 l -0.0504,-0.261155 0.155777,-0.471911 -0.155777,-0.526891 q 0.105379,-0.201593 0.105379,-0.57729 v -0.311553 l -0.105379,-0.788046 0.105379,-0.577289 -0.105379,-0.577289 0.105379,-0.737648 q -0.0046,-0.178685 -0.57729,-0.678086 0.595616,-0.371115 1.415734,-0.371115 z m 2.309158,1.837247 h 0.160358 q 0.155776,0.641433 0.311553,2.258759 v 0.210757 l -0.261155,0.261155 h -0.0504 q -0.38486,-0.2749 -0.682668,-0.943823 l -0.210756,-0.210756 v -0.05498 q 0,-0.288645 0.416931,-0.471911 l 0.105378,-0.206175 -0.0504,-0.05498 v -0.0504 z m 1.10418,2.625292 q 0.13745,0 0.261155,0.733066 l -0.105378,0.316135 v 0.838444 l -0.155777,0.160358 -0.843025,-0.160358 -0.943823,0.105379 v -0.0504 q 0.06414,-0.471911 0.160358,-0.471911 l 0.261155,0.0504 q 0,-0.210756 0.210756,-0.210756 l 0.155777,0.05498 q 0.316135,-0.251992 0.632269,-0.998803 z m 0.710158,2.744416 h 0.0504 l 0.155777,0.155777 v 0.421513 l -0.105378,0.105378 h -0.416932 l -0.471911,-0.0504 -0.05498,0.0504 -0.522309,-0.0504 h -0.05498 l -1.360754,0.0504 -0.05498,-0.0504 h -0.0504 l -0.265737,0.0504 -0.522309,-0.105378 -0.421513,0.105378 -0.366533,-0.0504 -0.316135,0.0504 -0.210756,-0.0504 -0.416932,0.0504 -0.210756,-0.155777 0.0504,-0.05498 v -0.155776 l -0.0504,-0.160358 h 0.0504 l 0.265737,-0.100797 h 0.210756 q 0.52231,0 0.52231,0.155777 v 0.0504 h 0.105378 v -0.0504 l -0.0504,-0.05498 v -0.0504 l 0.155776,-0.0504 0.57729,0.0504 0.0504,-0.0504 h 0.05498 l 0.627688,0.100797 0.421513,-0.100797 0.0504,0.0504 0.265736,-0.0504 h 0.0504 l 0.155776,0.100797 0.210757,-0.0504 0.05498,0.0504 h 0.0504 l 0.05498,-0.0504 h 0.0504 l 0.316135,0.105379 q 0.233664,-0.105379 0.682667,-0.105379 h 0.52231 z"
           inkscape:connector-curvature="0" />
      </g>
      <path
         id="path2602"
         style="font-style:normal;font-variant:normal;font-weight:normal;font-stretch:normal;font-family:'Old Stamper';-inkscape-font-specification:'Old Stamper';fill:#ff0000;stroke-width:0.0550283"
         d="m -134.25386,-51.234655 h 0.21533 q 0.32072,0 0.32072,0.210756 l 0.42151,-0.105378 0.055,0.05498 1.11793,-0.160358 0.31613,0.160358 0.58646,-0.160358 0.90258,0.105378 0.21534,-0.0504 0.79721,0.0504 0.21076,-0.0504 0.32071,0.105378 h 0.32072 l 0.21076,-0.160358 0.16036,0.160358 v 0.316135 q 0,0.132868 -0.26574,0.160358 l -0.32072,-0.0504 -1.53944,0.105379 -0.74681,-0.105379 h -0.21075 l -0.48108,0.105379 -0.84761,-0.105379 -0.055,0.0504 h -0.055 l -0.16035,-0.0504 -0.21076,0.0504 -0.21076,-0.0504 -0.26573,0.0504 -0.26574,-0.0504 -0.32072,0.0504 -0.37111,-0.0504 -0.26574,0.0504 -0.055,-0.0504 v -0.160358 l 0.055,-0.05498 q 0,-0.07789 0.31614,-0.105378 0,-0.265736 0.10538,-0.265736 z m 2.23585,1.278283 0.055,0.0504 v 0.05498 q 0,0.293226 -1.11793,1.168324 0,0.05498 -0.69183,0.105378 -0.42609,-0.0504 -0.42609,-0.155777 0.32071,-0.426094 1.43406,-0.957567 0.50856,-0.265737 0.74681,-0.265737 z m 1.27828,0.105379 q 0.28865,0 0.63685,0.426094 0.53148,0 0.69183,0.691831 0.29323,0 0.63685,1.699797 0,0.691831 -0.37111,0.691831 -0.26574,0 -0.26574,0.265736 l -0.53147,0.05498 h -0.64143 v 0.105379 q 0.32071,0 0.32071,0.105378 0,0.210756 -0.32071,0.210756 v 0.05498 l 0.53605,0.05498 q 0.60936,0 0.90259,-0.320716 h 0.10538 q 0,-0.160358 0.10538,-0.160358 h 0.055 v 0.371114 q 0,0.132869 -0.26574,0.536055 0,0.820117 -1.59442,1.539438 -0.29323,0 -0.85219,0.215339 h -0.055 v -0.265737 q 0.53147,-0.426095 0.53147,-0.586453 l 0.16036,-0.586452 v -0.371115 l -0.10538,-0.586453 v -0.105378 h 0.16036 v -0.05498 q -0.26573,-0.02291 -0.26573,-0.155777 v -0.160358 q 0.13286,-0.719321 0.37111,-0.797209 l 0.16036,0.0504 0.31613,-0.0504 -0.0504,-0.05498 v -0.05498 q 0,-0.316135 0.37111,-0.316135 v -0.05498 h -0.85219 v 0.105379 l 0.055,0.05498 v 0.05498 l -0.055,0.0504 h -0.0504 q -0.21534,-0.343625 -0.21534,-0.531473 l 0.10996,-0.636851 q -0.0825,-0.105378 -0.16035,-0.907169 l -0.32072,-0.316135 v -0.105378 z m -1.6494,1.007965 h 0.10538 v 0.79721 q -0.10538,0.132868 -0.16036,0.536054 l 0.10538,0.636851 -0.10538,0.316135 0.10538,0.10996 -0.10538,1.915135 0.63685,0.847607 q -0.0779,0.375697 -0.21075,0.375697 -2.02052,-0.586453 -2.02052,-1.544021 l -0.055,-0.05498 v -0.0504 l 0.16036,-0.160358 v -0.05498 q -0.42609,0 -0.58645,-0.581871 l -0.15578,-0.160358 v -0.105379 q 0.15578,-0.215338 0.15578,-0.481074 l -0.0504,-0.476493 q 0.10538,-0.160358 0.26574,-1.067527 0.8751,-0.105379 1.11792,-0.316135 0.58187,0 0.58187,-0.265736 0.21534,0 0.21534,-0.215339 z m 2.07091,6.221898 q 0.055,0.320716 0.27032,0.320716 0.63685,-0.183266 0.63685,-0.265736 l 0.63685,0.05498 0.21534,-0.05498 0.0504,0.05498 h 0.055 l 0.21076,-0.05498 0.10538,0.160358 v 0.371115 l -0.0504,0.05498 v 0.0504 l -0.32072,-0.0504 -0.42609,0.0504 -0.31614,-0.105378 h -0.26573 l -0.32072,0.105378 -0.21076,-0.0504 -0.21534,0.0504 -1.11792,-0.105378 -0.53147,0.105378 -0.26574,-0.0504 h -1.11793 q -0.26573,0 -0.26573,0.105378 l -0.74223,-0.105378 h -0.32072 l -0.10538,-0.105379 v -0.265736 l 0.4261,-0.215338 h 0.21075 l 0.4261,0.05498 0.42609,-0.05498 0.055,0.05498 v 0.0504 l -0.16035,0.160358 q 0.0504,0.215338 0.26573,0.215338 0.18327,-0.426094 1.16833,-0.426094 l 0.055,-0.05498 h 0.0504 l 0.10996,0.105378 h 0.37112 l 0.16036,-0.105378 0.26573,0.05498 z"
         inkscape:connector-curvature="0" />
      <path
         id="path2604"
         style="font-style:normal;font-variant:normal;font-weight:normal;font-stretch:normal;font-family:'Old Stamper';-inkscape-font-specification:'Old Stamper';fill:#ff0000;stroke-width:0.0550283"
         d="m -127.22559,-51.225492 0.6231,0.105378 h 0.26116 v 0.155777 q -0.49482,0 -0.62311,0.311553 l -1.04462,0.155776 q -0.36195,-0.128286 -0.36195,-0.206175 v -0.105378 q 0.0275,-0.07789 1.14542,-0.416931 z m 2.44202,0 0.26116,0.105378 0.52231,-0.05498 q 0.41693,0.02749 0.41693,0.155777 l 0.36195,-0.0504 h 0.72848 l 0.15578,-0.105378 h 0.21076 v 0.416932 q -0.13287,0.210756 -0.62769,0.210756 l -1.55777,-0.05498 -0.055,-0.0504 v -0.0504 l 0.15578,-0.210756 h -0.36195 v 0.0504 l 0.10538,0.160358 q -0.26116,0.155777 -0.57271,0.155777 l -0.055,-0.05498 -0.62311,0.105378 -0.77888,-0.105378 v -0.100797 h 0.36195 q 0.57271,0 0.72849,-0.366533 0,-0.07789 0.6231,-0.155776 z m 1.45697,1.250794 0.15578,0.0504 0.21075,-0.0504 q 0.23367,0.100796 0.26116,0.206175 v 0.105378 q -0.0779,0.467329 -0.47191,0.467329 -0.46733,0.43984 -0.46733,0.829281 0,0.261155 -0.31156,1.044619 0,0.545218 -0.26115,1.507367 h -0.15578 v -0.05498 l 0.10538,-0.311553 q -0.20617,-0.284063 -0.20617,-0.572708 v -0.723902 q 0.36195,-0.210757 0.36195,-1.356172 v -0.100797 l 0.15577,-0.05498 v -0.100796 q -0.28406,0 -0.6231,-0.471912 v -0.0504 l 0.20617,-0.261155 h 0.21076 z m -3.22549,0.100796 1.25079,0.05498 0.0504,0.0504 v 0.261154 l -0.31155,0.361952 v 0.105378 l 0.10538,0.105378 -0.055,0.361951 q 0.18326,1.223304 0.57271,1.663144 0.18326,0.444421 0.31613,1.612745 l 0.1008,0.155777 q -0.12829,1.145415 -0.46733,1.562346 -0.12829,0.128287 -0.77889,0.206175 l -0.5223,-0.155776 v -0.361952 q 0,-0.311553 -0.20618,-0.572707 v -0.105379 h 0.41693 v -0.0504 q -0.23824,0 -0.41693,-0.155776 l 0.15578,-0.261155 q -0.36654,0 -0.36654,-0.261155 l -0.5727,-1.612745 q 0.33904,-0.256573 0.62768,-0.256573 v -0.105378 h -0.52231 q -0.51772,-0.884261 -0.51772,-1.718124 l -0.57271,-0.467329 v -0.0504 q 0,-0.105378 0.25657,-0.105378 l 0.055,-0.155776 0.36195,0.0504 z m 2.24043,0.366533 v 0.100797 l 0.15578,-0.0504 v -0.0504 z m -2.4466,2.652783 v 0.0504 h 0.67808 l 0.31155,-0.206175 h -0.5223 q -0.23367,0.155777 -0.46733,0.155777 z m 1.09043,0.361951 h 0.15578 v -0.100796 h -0.0504 z m -1.9243,3.85776 0.41693,0.05498 0.31156,-0.05498 0.57271,0.05498 0.41693,-0.05498 0.0504,0.05498 v 0.0504 q -0.28407,0.210757 -0.46733,0.210757 v 0.155776 h 0.31155 q 0.21075,0 0.98964,-0.416931 l 0.46733,0.0504 0.52231,-0.0504 0.26115,0.100796 1.14084,-0.155776 q 0.47191,0.07789 0.47191,0.210756 v 0.416932 h -0.36654 l -0.20617,-0.05498 -0.21076,0.105378 -0.57271,-0.0504 -0.41693,0.0504 -1.04003,-0.105378 -1.29661,0.05498 h -0.10538 l -0.10538,-0.105379 q -0.62311,0.105379 -1.56235,0.105379 h -0.31155 v -0.155777 h 0.15578 v -0.105378 q 0,-0.105378 -0.15578,-0.105378 v -0.105379 z m -0.36195,0.210756 v 0.155777 h 0.36195 v -0.105378 z"
         inkscape:connector-curvature="0" />
      <path
         id="path2606"
         style="font-style:normal;font-variant:normal;font-weight:normal;font-stretch:normal;font-family:'Old Stamper';-inkscape-font-specification:'Old Stamper';fill:#ff0000;stroke-width:0.0550283"
         d="m -117.33378,-51.30338 0.47191,0.0504 h 0.15577 l 0.10538,0.105378 v 0.371115 q 0,0.100796 -0.41693,0.155776 v -0.05498 q 0,-0.128286 0.21076,-0.155776 v -0.261155 l -0.78805,0.316135 q -0.57729,0 -0.57729,0.155776 l -0.63227,-0.05498 h -0.41693 l -0.31613,0.105379 -0.47192,-0.105379 -0.94382,0.105379 -0.16036,-0.105379 -0.36653,0.05498 h -0.0504 l -0.21075,-0.05498 -0.15578,0.05498 q -0.52689,-0.03207 -0.52689,-0.155776 v -0.160358 l 0.10538,-0.105379 0.0504,0.160359 h 0.055 q 0.15578,-0.210757 0.57729,-0.210757 v -0.05498 l 0.52231,0.05498 h 1.20956 l 0.73307,-0.105378 0.47191,0.0504 z m -1.56235,1.328682 0.055,0.05498 v 0.0504 l -0.10538,0.316135 v 0.05498 l 0.10538,0.100796 h 0.10538 q 0,-0.21992 0.21075,-0.416931 l 0.52231,0.0504 0.57729,-0.0504 0.055,0.0504 v 0.421513 l 0.0504,1.154579 q -0.27032,0.261155 -0.47191,0.261155 l -0.36653,-0.52231 0.0504,-0.160358 -0.57729,-0.522309 v -0.05498 h -0.15577 l -0.21076,0.05498 q -0.26115,-0.07331 -0.26115,-0.366533 v -0.265737 q 0,-0.13745 0.41693,-0.210756 z m -1.99302,0.105378 0.83844,0.265736 0.26574,-0.160358 0.26115,0.316135 v 0.261155 q 0,0.178685 -0.15578,0.366533 v 0.210756 l 0.0504,0.526891 q 0,0.430677 -0.42151,0.57729 l -0.31155,0.210756 q -0.47191,0 -0.63227,0.261155 l -0.36654,0.0504 v 0.05498 q 0.26116,0.21992 0.26116,0.366533 h 0.055 q 0,-0.233665 0.47191,-0.261155 0,-0.210756 0.36653,-0.210756 l 0.47191,-0.316135 h 0.055 l 0.26116,0.57729 -0.36653,1.259957 0.0504,0.210756 -0.0504,0.0504 v 0.05498 l 0.10537,0.366533 -0.055,0.0504 v 0.05498 l 0.055,0.0504 v 0.160358 h -0.055 l 0.055,0.366533 v 0.627688 q 0,0.123705 -0.9484,0.210757 l -0.47191,-0.261155 h -0.0504 l -0.63227,0.210756 q -0.33446,-0.13745 -0.36653,-0.265736 v -0.155777 q 0,-0.13745 0.36653,-0.210756 l -0.0504,-0.261155 0.15578,-0.471911 -0.15578,-0.526891 q 0.10538,-0.201593 0.10538,-0.57729 v -0.311553 l -0.10538,-0.788046 0.10538,-0.577289 -0.10538,-0.57729 0.10538,-0.737647 q -0.005,-0.178685 -0.57729,-0.678086 0.59562,-0.371115 1.41574,-0.371115 z m 2.30915,1.837247 h 0.16036 q 0.15578,0.641432 0.31155,2.258759 v 0.210757 l -0.26115,0.261154 h -0.0504 q -0.38486,-0.274899 -0.68267,-0.943822 l -0.21075,-0.210757 v -0.05498 q 0,-0.288645 0.41693,-0.471912 l 0.10538,-0.206175 -0.0504,-0.05498 v -0.0504 z m 1.10418,2.625292 q 0.13745,0 0.26116,0.733066 l -0.10538,0.316135 v 0.838444 l -0.15578,0.160358 -0.84302,-0.160358 -0.94382,0.105378 v -0.0504 q 0.0641,-0.471911 0.16035,-0.471911 l 0.26116,0.0504 q 0,-0.210756 0.21075,-0.210756 l 0.15578,0.05498 q 0.31614,-0.251992 0.63227,-0.998803 z m 0.71016,2.744416 h 0.0504 l 0.15578,0.155776 v 0.421513 l -0.10538,0.105379 h -0.41693 l -0.47191,-0.0504 -0.055,0.0504 -0.52231,-0.0504 h -0.055 l -1.36076,0.0504 -0.055,-0.0504 h -0.0504 l -0.26573,0.0504 -0.52231,-0.105379 -0.42151,0.105379 -0.36654,-0.0504 -0.31613,0.0504 -0.21076,-0.0504 -0.41693,0.0504 -0.21076,-0.155777 0.0504,-0.05498 v -0.155776 l -0.0504,-0.160359 h 0.0504 l 0.26574,-0.100796 h 0.21075 q 0.52231,0 0.52231,0.155776 v 0.0504 h 0.10538 v -0.0504 l -0.0504,-0.05498 v -0.0504 l 0.15578,-0.0504 0.57729,0.0504 0.0504,-0.0504 h 0.055 l 0.62769,0.100796 0.42151,-0.100796 0.0504,0.0504 0.26573,-0.0504 h 0.0504 l 0.15578,0.100796 0.21075,-0.0504 0.055,0.0504 h 0.0504 l 0.055,-0.0504 h 0.0504 l 0.31614,0.105378 q 0.23366,-0.105378 0.68266,-0.105378 h 0.52231 z"
         inkscape:connector-curvature="0" />
      <path
         id="path2608"
         style="font-style:normal;font-variant:normal;font-weight:normal;font-stretch:normal;font-family:'Old Stamper';-inkscape-font-specification:'Old Stamper';fill:#ff0000;stroke-width:0.0550283"
         d="m -115.08877,-51.234655 0.10538,0.105378 h 0.15577 l 0.16036,-0.05498 0.26116,0.05498 h 0.26573 l 0.42152,-0.105378 0.21075,0.155776 0.47191,-0.0504 h 0.10538 v 0.0504 l 0.37112,-0.0504 h 0.84302 l 0.31614,-0.105378 q 0.65518,0.0504 0.73765,0.155776 l 0.21075,-0.155776 q 0.57729,0.0504 0.57729,0.155776 v 0.476493 h -0.0504 l -0.42151,-0.05498 -0.52689,0.105378 -0.31614,-0.0504 h -0.055 l -0.36653,0.0504 -1.63565,-0.105378 -0.47191,0.05498 -0.52689,-0.05498 -0.21076,0.05498 -0.52689,-0.05498 -0.42152,0.05498 -0.16035,-0.05498 -0.31614,0.105378 -0.47191,-0.0504 h -0.26574 l -0.15577,-0.160358 v -0.155777 q 0,-0.183266 1.05378,-0.265736 l 0.26115,0.05498 z m 0.4994,1.264538 h 0.31614 l 0.15577,0.160359 v 0.155776 q -0.0779,0.160358 -0.73765,0.371115 0,0.155776 -0.57729,0.155776 h -0.73764 l -0.26574,-0.0504 v -0.160358 h 0.10538 v -0.0504 q -0.36653,0 -0.36653,-0.371115 l 0.15577,-0.0504 0.94841,0.105378 q 1.00338,-0.105378 1.00338,-0.265737 z m 1.10418,0.105379 0.16036,0.160358 -0.055,0.366533 0.10538,0.371114 h 0.10538 l 0.055,-0.265736 -0.16036,-0.366533 0.055,-0.05498 h 0.0504 l 0.21075,0.160358 q 0.29323,-0.265736 0.58187,-0.265736 1.15916,0.581871 1.15916,1.264539 l -0.055,1.003384 -0.63227,0.632269 h -0.21075 l -0.15578,-0.05498 -0.26573,0.05498 h -0.68267 l -0.16036,-0.105378 0.16036,-0.843026 -0.10538,-0.687249 0.0504,-0.210757 q -0.0504,-0.421513 -0.47191,-0.737647 v -0.105379 z m -0.63227,0.526891 0.055,0.05498 v 0.788046 l -0.16036,0.792627 q 0.21076,0.394023 0.21076,0.788046 -0.12829,1.026293 -0.26115,1.369917 l 0.0504,0.316135 -0.0504,0.160358 q 0.10537,0 0.31613,1.159161 0.15578,0 0.26115,0.210756 v 0.105378 l -0.15577,0.155777 h -0.16036 l -0.68267,0.05498 -0.52689,-0.105378 -1.26454,0.155776 q -0.26573,-0.07789 -0.26573,-0.155776 v -0.05498 q 0,-0.316135 0.47649,-0.471911 0.23825,-0.63227 0.36653,-0.63227 v -0.160358 l -0.21075,-0.0504 0.055,-0.265737 v -0.0504 q -0.21076,0 -0.21076,-0.421513 l 0.0504,-0.265736 -0.0504,-0.682668 0.0504,-0.371115 -0.0504,-0.0504 v -0.05498 l 0.10538,-0.737648 v -0.788046 l -0.055,-0.371114 h 1.53027 q 0.21076,0 0.57729,-0.421513 z m 0.63227,2.529077 h 0.10538 q 0.13287,0.160359 0.26574,0.160359 v 0.0504 q 0,0.105378 -0.16036,0.105378 l -0.0504,0.05498 v 0.0504 h 0.63227 l 0.36653,-0.316134 0.055,0.05498 v 0.0504 l -0.16036,0.160358 v 0.0504 q 1.0263,0 1.26454,0.68725 l 0.055,0.261155 -0.055,0.160358 0.055,0.155776 -0.10538,0.421513 v 0.265737 l 0.15578,0.155776 h 0.10538 q 0.18327,0 0.37111,-0.155776 h 0.10538 l 0.0504,0.210756 q -0.23825,0.526891 -1.05378,0.948404 l -0.15578,-0.05498 -0.26574,0.05498 q -1.26453,-0.293226 -1.26453,-1.108762 l 0.055,-0.210757 q -0.0779,-0.316134 -0.16036,-0.316134 l 0.055,-0.526891 q 0,-0.737648 -0.42152,-0.737648 l -0.055,-0.261155 v -0.05498 z m 0.79263,2.529078 v 0.316135 h 0.0504 q 0,-0.471911 0.73764,-0.471911 0,-0.210757 0.37112,-0.210757 0.15578,0 0.15578,-0.105378 v -0.160358 h -0.63227 q -0.28865,0 -0.31614,0.265736 -0.23366,0 -0.36653,0.366533 z m 0.49482,1.65398 h 0.21075 q 0.10538,0 0.10538,0.155777 h 0.21076 l -0.055,-0.0504 v -0.05498 l 0.055,-0.0504 1.47529,0.155777 0.10538,-0.105379 h 0.0504 l 0.10538,0.105379 v 0.371114 l -0.10538,0.105379 h -0.15578 l -0.21075,-0.05498 -0.42151,0.105378 -2.21295,-0.105378 -0.31613,0.05498 -0.73765,-0.05498 -0.68725,0.05498 -0.15578,-0.05498 -0.055,0.05498 h -0.0504 l -0.16036,-0.05498 -0.47191,0.105378 q -0.4765,-0.02749 -0.4765,-0.105378 l -0.26115,0.05498 h -0.31614 l -0.10537,-0.105379 v -0.210756 q 0.31613,-0.265737 0.9988,-0.265737 v 0.05498 q 0,0.210757 0.26573,0.210757 l 1.10419,-0.210757 0.31613,0.0504 0.37111,-0.0504 0.21076,0.0504 1.20956,-0.105379 0.055,0.05498 z"
         inkscape:connector-curvature="0" />
      <path
         id="path2610"
         style="font-style:normal;font-variant:normal;font-weight:normal;font-stretch:normal;font-family:'Old Stamper';-inkscape-font-specification:'Old Stamper';fill:#ff0000;stroke-width:0.0550283"
         d="m -108.4362,-51.234655 0.10538,0.105378 h 0.15578 l 0.16036,-0.05498 0.26115,0.05498 h 0.26574 l 0.42151,-0.105378 0.21076,0.155776 0.47191,-0.0504 h 0.10538 v 0.0504 l 0.37111,-0.0504 h 0.84303 l 0.31613,-0.105378 q 0.65518,0.0504 0.73765,0.155776 l 0.21076,-0.155776 q 0.57729,0.0504 0.57729,0.155776 v 0.476493 h -0.0504 l -0.42152,-0.05498 -0.52689,0.105378 -0.31613,-0.0504 h -0.055 l -0.36653,0.0504 -1.63566,-0.105378 -0.47191,0.05498 -0.52689,-0.05498 -0.21076,0.05498 -0.52689,-0.05498 -0.42151,0.05498 -0.16036,-0.05498 -0.31613,0.105378 -0.47191,-0.0504 h -0.26574 l -0.15578,-0.160358 v -0.155777 q 0,-0.183266 1.05378,-0.265736 l 0.26116,0.05498 z m 0.49941,1.264538 h 0.31613 l 0.15578,0.160359 v 0.155776 q -0.0779,0.160358 -0.73765,0.371115 0,0.155776 -0.57729,0.155776 h -0.73765 l -0.26573,-0.0504 v -0.160358 h 0.10537 v -0.0504 q -0.36653,0 -0.36653,-0.371115 l 0.15578,-0.0504 0.9484,0.105378 q 1.00339,-0.105378 1.00339,-0.265737 z m 1.10418,0.105379 0.16035,0.160358 -0.055,0.366533 0.10538,0.371114 h 0.10538 l 0.055,-0.265736 -0.16036,-0.366533 0.055,-0.05498 h 0.0504 l 0.21076,0.160358 q 0.29322,-0.265736 0.58187,-0.265736 1.15916,0.581871 1.15916,1.264539 l -0.055,1.003384 -0.63227,0.632269 h -0.21076 l -0.15577,-0.05498 -0.26574,0.05498 h -0.68267 l -0.16036,-0.105378 0.16036,-0.843026 -0.10538,-0.687249 0.0504,-0.210757 q -0.0504,-0.421513 -0.47191,-0.737647 v -0.105379 z m -0.63227,0.526891 0.055,0.05498 v 0.788046 l -0.16036,0.792627 q 0.21075,0.394023 0.21075,0.788046 -0.12828,1.026293 -0.26115,1.369917 l 0.0504,0.316135 -0.0504,0.160358 q 0.10538,0 0.31613,1.159161 0.15578,0 0.26116,0.210756 v 0.105378 l -0.15578,0.155777 h -0.16036 l -0.68266,0.05498 -0.52689,-0.105378 -1.26454,0.155776 q -0.26574,-0.07789 -0.26574,-0.155776 v -0.05498 q 0,-0.316135 0.47649,-0.471911 0.23825,-0.63227 0.36654,-0.63227 v -0.160358 l -0.21076,-0.0504 0.055,-0.265737 v -0.0504 q -0.21076,0 -0.21076,-0.421513 l 0.0504,-0.265736 -0.0504,-0.682668 0.0504,-0.371115 -0.0504,-0.0504 v -0.05498 l 0.10538,-0.737648 v -0.788046 l -0.055,-0.371114 h 1.53028 q 0.21075,0 0.57729,-0.421513 z m 0.63227,2.529077 h 0.10537 q 0.13287,0.160359 0.26574,0.160359 v 0.0504 q 0,0.105378 -0.16036,0.105378 l -0.0504,0.05498 v 0.0504 h 0.63227 l 0.36654,-0.316134 0.055,0.05498 v 0.0504 l -0.16036,0.160358 v 0.0504 q 1.02629,0 1.26454,0.68725 l 0.055,0.261155 -0.055,0.160358 0.055,0.155776 -0.10538,0.421513 v 0.265737 l 0.15578,0.155776 h 0.10537 q 0.18327,0 0.37112,-0.155776 h 0.10538 l 0.0504,0.210756 q -0.23824,0.526891 -1.05378,0.948404 l -0.15577,-0.05498 -0.26574,0.05498 q -1.26454,-0.293226 -1.26454,-1.108762 l 0.055,-0.210757 q -0.0779,-0.316134 -0.16036,-0.316134 l 0.055,-0.526891 q 0,-0.737648 -0.42151,-0.737648 l -0.055,-0.261155 v -0.05498 z m 0.79262,2.529078 v 0.316135 h 0.0504 q 0,-0.471911 0.73765,-0.471911 0,-0.210757 0.37111,-0.210757 0.15578,0 0.15578,-0.105378 v -0.160358 h -0.63227 q -0.28864,0 -0.31613,0.265736 -0.23367,0 -0.36654,0.366533 z m 0.49482,1.65398 h 0.21076 q 0.10538,0 0.10538,0.155777 h 0.21075 l -0.055,-0.0504 v -0.05498 l 0.055,-0.0504 1.4753,0.155777 0.10538,-0.105379 h 0.0504 l 0.10537,0.105379 v 0.371114 l -0.10537,0.105379 h -0.15578 l -0.21076,-0.05498 -0.42151,0.105378 -2.21294,-0.105378 -0.31614,0.05498 -0.73765,-0.05498 -0.68724,0.05498 -0.15578,-0.05498 -0.055,0.05498 h -0.0504 l -0.16036,-0.05498 -0.47191,0.105378 q -0.47649,-0.02749 -0.47649,-0.105378 l -0.26116,0.05498 h -0.31613 l -0.10538,-0.105379 v -0.210756 q 0.31614,-0.265737 0.9988,-0.265737 v 0.05498 q 0,0.210757 0.26574,0.210757 l 1.10418,-0.210757 0.31613,0.0504 0.37112,-0.0504 0.21076,0.0504 1.20955,-0.105379 0.055,0.05498 z"
         inkscape:connector-curvature="0" />
      <path
         id="path2612"
         style="font-style:normal;font-variant:normal;font-weight:normal;font-stretch:normal;font-family:'Old Stamper';-inkscape-font-specification:'Old Stamper';fill:#ff0000;stroke-width:0.0550283"
         d="m -101.84318,-51.266727 0.73764,0.210756 0.74223,-0.105378 0.26574,0.05498 0.320715,-0.105378 0.0504,0.0504 v 0.426095 q 0,0.105378 -0.160358,0.105378 l -0.526897,-0.05498 -0.055,0.05498 h -0.0504 l -0.32072,-0.05498 -0.42151,0.05498 -0.16036,-0.05498 -0.84761,0.05498 h -0.31613 l -0.21534,-0.05498 -0.73765,0.105378 -0.055,-0.0504 v -0.371115 q 0,-0.128286 0.53147,-0.160358 l 0.95299,0.05498 q 0,-0.09163 0.26574,-0.160358 z m 0.14203,1.314937 h 0.37111 l 0.16036,0.105378 0.0504,-0.05498 h 0.055 l 0.055,0.05498 h 0.0504 l 0.37111,-0.105378 q 0.31614,0.2749 0.31614,0.476493 -0.5269,0 -0.5269,0.632269 l -0.10537,0.371115 v 0.426095 q 0,0.403186 0.21075,0.476493 l -0.055,0.265736 v 0.526891 l 0.055,0.476493 -0.21075,0.586453 0.26573,1.108762 -0.055,0.476493 q 0.37112,0.265736 0.37112,0.426095 -0.17411,0.421512 -0.37112,0.421512 l -0.53147,-0.261154 -0.52689,0.105378 -0.47649,-0.105378 -0.53148,0.155776 q -0.449,0 -0.63685,-0.316134 v -0.05498 l 0.10538,-0.105379 h 0.26574 q 0.21075,-0.710157 0.21075,-1.589836 h 0.21534 l -0.055,-0.261155 q 0,-0.160358 0.37112,-0.160358 v -0.05498 q -0.63686,0 -0.63686,-0.371115 v -0.581871 l -0.0504,-0.581871 0.10537,-0.531473 -0.055,-0.210757 0.055,-0.476492 v -0.316135 l -0.47649,-0.476493 v -0.05498 q 0,-0.160358 1.53486,-0.316135 z m -0.31614,4.288436 q 0,0.160358 -0.16036,0.160358 v 0.0504 q 0.50857,0 0.74223,0.109959 l 0.31614,-0.05498 h 0.10996 v -0.265736 z m -0.0641,3.051387 q 0.10538,0 0.10538,0.155777 h 0.16036 l 0.21075,-0.155777 0.52689,0.0504 0.37112,-0.0504 0.47649,0.0504 0.481075,-0.0504 0.0504,0.0504 v 0.265737 q 0,0.105378 -0.581875,0.160358 l 0.0504,0.0504 v 0.05498 l -0.0504,0.0504 h -0.16036 l -0.31613,-0.0504 -0.16036,0.105379 -0.37111,-0.05498 h -0.37112 l -0.26573,0.05498 -1.32411,-0.160359 -0.26115,0.105379 -0.055,-0.0504 v -0.105378 q 0,-0.380278 0.74223,-0.476493 z"
         inkscape:connector-curvature="0" />
      <path
         id="path2614"
         style="font-style:normal;font-variant:normal;font-weight:normal;font-stretch:normal;font-family:'Old Stamper';-inkscape-font-specification:'Old Stamper';fill:#ff0000;stroke-width:0.0550283"
         d="m -98.636022,-51.225492 q 0.52231,0.0504 0.52231,0.155776 0,0.105379 -0.155777,0.105379 v 0.0504 l 0.100797,0.105378 h 0.05498 q 0.517727,0 0.517727,-0.155776 0,-0.210757 0.105379,-0.210757 h 0.155776 q 0.105378,0 0.105378,0.155777 h 0.256573 l 0.05498,-0.155777 0.311553,0.05498 0.517728,-0.05498 0.261155,0.155777 q 0.893424,-0.0504 1.095017,-0.155777 l 0.46733,0.05498 h 0.100796 l 0.471912,-0.05498 q 0.311553,0.06873 0.311553,0.155777 v 0.316134 q 0,0.100797 -0.623106,0.155777 l -0.261155,-0.05498 -0.52231,0.05498 -1.401988,-0.05498 h -0.05498 q -0.60478,0 -0.829281,0.105378 l -0.311553,-0.105378 h -0.783464 q -0.100797,0 -0.100797,-0.155776 h -0.05498 l -0.256573,0.210756 -0.627688,-0.105378 -0.467329,0.0504 h -0.206175 l -0.105378,-0.100797 v -0.210756 l 0.778882,-0.261155 0.311553,0.105378 q 0.261155,-0.03665 0.261155,-0.155776 z m -0.623106,1.337845 0.0504,0.0504 v 0.05498 q -0.02291,0.142031 -0.467329,0.416931 h -0.0504 l -0.210756,-0.210757 q 0,-0.160358 0.678086,-0.311553 z m 1.8739,0 h 0.0504 l 0.105378,0.105379 v 0.0504 l -0.155776,0.261155 0.0504,1.301192 -0.155776,0.416931 v 0.0504 l 0.206174,0.623106 -0.206174,0.572708 0.206174,0.361952 -0.155776,1.200395 0.155776,0.256573 v 0.105378 l -0.0504,0.311553 0.0504,0.05498 v 0.0504 l -0.0504,0.311553 v 0.105378 l 0.0504,0.256573 -0.88426,0.160358 -0.93466,-0.05498 -0.361951,0.05498 q -0.366533,-0.04124 -0.366533,-0.366533 l 0.623106,-0.311553 h 0.05498 q -0.229083,-0.279481 -0.366533,-0.833862 l 0.05498,-0.829281 v -0.311553 l -0.105378,-0.471912 q 0.348206,0 0.623106,-0.311553 0.522309,0 0.522309,-0.256573 0.43984,0 0.568127,-0.261154 0.316134,0 0.316134,-0.311553 h -0.05498 q -0.449003,0 -0.673504,0.311553 -0.265736,0 -0.471911,0.261154 -0.421513,0 -0.673505,0.256573 h -0.155776 v -0.0504 l 0.206175,-1.195814 -0.0504,-0.366533 0.0504,-0.155776 -0.100797,-0.728485 h 0.0504 q 0.261155,0 0.623106,-0.361951 l 0.261155,-0.155776 h 0.0504 l 0.366533,0.105378 q 0.471911,0 0.728484,-0.210757 z m 0.778882,0 h 0.105379 q 0.636851,0.52231 1.040037,0.52231 v 0.100796 h -0.105378 v 0.105379 h 0.0504 l 0.261155,-0.0504 q 0.435258,0.407768 0.728484,1.246213 0.242828,0 0.311553,0.778882 l -0.0504,0.572708 0.0504,0.05498 v 0.0504 l -0.0504,0.206175 0.0504,0.210756 q -0.238246,1.122508 -0.728484,1.713542 0,0.114542 -0.46733,0.366533 -0.265736,0.46733 -0.884261,0.46733 l -0.416931,0.155776 q -0.261155,0 -0.261155,-0.467329 0,-0.142032 0.52231,-0.206175 v -0.105378 h 0.0504 l -0.0504,-0.261155 v -0.623106 l -0.0504,-0.52231 q 0.329879,-0.329879 0.412349,-0.623106 0.160358,0 0.160358,-0.105378 -0.100796,-0.233665 -0.210756,-0.256573 l -0.155777,0.155776 0.0504,0.206175 h -0.206175 v -0.261155 q 0,-0.256573 -0.105378,-0.256573 l 0.05498,-0.261154 v -0.210757 h 0.0504 l 0.0504,0.05498 h 0.05498 l 0.0504,-0.05498 v -0.0504 l -0.155776,-0.261155 0.105378,-0.728484 -0.366533,-1.195814 q -0.206175,0 -0.206175,-0.100797 v -0.105378 z m 1.301193,1.040038 -0.05498,0.05498 v 0.0504 h 0.261154 v -0.0504 z m -2.652783,4.787837 v 0.256573 l 0.100797,0.105378 h 0.05498 v -0.105378 l -0.05498,-0.256573 z m -0.155776,1.420315 0.0504,0.155777 h 0.105378 l 0.155777,-0.100797 h 0.105378 l 0.155776,0.100797 h 0.673505 l 0.210756,-0.0504 0.155777,0.0504 v -0.0504 l 0.100796,-0.105378 h 0.416932 q 0.187848,0.224502 0.678086,0.471911 h 0.256573 v -0.105378 q 0,-0.105378 -0.256573,-0.105378 v -0.261155 l 0.416931,0.05498 0.568126,-0.05498 0.316135,0.105378 h 0.206174 l 0.361952,-0.0504 0.05498,0.0504 v 0.416932 l -0.105378,0.155776 -0.261155,-0.0504 h -0.985058 l -0.316134,-0.05498 -0.256573,0.05498 -0.261155,-0.05498 -0.0504,0.05498 v 0.0504 l -0.783465,-0.105378 -0.256573,0.105378 -0.572708,-0.0504 h -0.210756 l -0.256573,0.0504 -0.316135,-0.0504 h -0.673504 l -0.261155,0.0504 -0.311553,-0.0504 h -0.155777 l -0.522309,0.0504 -0.0504,-0.0504 v -0.366533 l 0.105378,-0.105378 h 0.361951 l 0.311553,-0.0504 0.155777,0.0504 0.471911,-0.0504 0.155776,0.0504 q 0,-0.100797 0.311554,-0.155777 z m 2.547404,0.05498 0.105378,0.100797 -0.05498,0.05498 h -0.0504 l -0.105378,-0.105379 0.05498,-0.0504 z m 0.833862,0.100797 v 0.160358 h 0.100797 v -0.05498 z"
         inkscape:connector-curvature="0" />
      <path
         id="path2616"
         style="font-style:normal;font-variant:normal;font-weight:normal;font-stretch:normal;font-family:'Old Stamper';-inkscape-font-specification:'Old Stamper';fill:#ff0000;stroke-width:0.0550283"
         d="m -88.652577,-51.30338 0.471911,0.0504 h 0.155777 l 0.105378,0.105378 v 0.371115 q 0,0.100796 -0.416931,0.155776 v -0.05498 q 0,-0.128286 0.210756,-0.155776 v -0.261155 l -0.788046,0.316135 q -0.577289,0 -0.577289,0.155776 l -0.63227,-0.05498 h -0.416931 l -0.316135,0.105379 -0.471911,-0.105379 -0.943822,0.105379 -0.160359,-0.105379 -0.366533,0.05498 h -0.0504 l -0.210756,-0.05498 -0.155777,0.05498 q -0.526891,-0.03207 -0.526891,-0.155776 v -0.160358 l 0.105378,-0.105379 0.0504,0.160359 h 0.05498 q 0.155776,-0.210757 0.577289,-0.210757 v -0.05498 l 0.522309,0.05498 h 1.209559 l 0.733066,-0.105378 0.471912,0.0504 z m -1.562347,1.328682 0.05498,0.05498 v 0.0504 l -0.105378,0.316135 v 0.05498 l 0.105378,0.100796 h 0.105378 q 0,-0.21992 0.210757,-0.416931 l 0.522309,0.0504 0.57729,-0.0504 0.05498,0.0504 v 0.421513 l 0.0504,1.154579 q -0.270318,0.261155 -0.471911,0.261155 l -0.366533,-0.52231 0.0504,-0.160358 -0.577289,-0.522309 v -0.05498 h -0.155777 l -0.210756,0.05498 q -0.261155,-0.07331 -0.261155,-0.366533 v -0.265737 q 0,-0.13745 0.416931,-0.210756 z m -1.993023,0.105378 0.838444,0.265736 0.265737,-0.160358 0.261154,0.316135 v 0.261155 q 0,0.178685 -0.155776,0.366533 v 0.210756 l 0.0504,0.526891 q 0,0.430677 -0.421513,0.57729 l -0.311553,0.210756 q -0.471911,0 -0.632269,0.261155 l -0.366533,0.0504 v 0.05498 q 0.261154,0.21992 0.261154,0.366533 h 0.05498 q 0,-0.233665 0.471912,-0.261155 0,-0.210756 0.366533,-0.210756 l 0.471911,-0.316135 h 0.05498 l 0.261155,0.57729 -0.366533,1.259957 0.0504,0.210756 -0.0504,0.0504 v 0.05498 l 0.105378,0.366533 -0.05498,0.0504 v 0.05498 l 0.05498,0.0504 v 0.160358 h -0.05498 l 0.05498,0.366533 v 0.627688 q 0,0.123705 -0.948404,0.210757 l -0.471912,-0.261155 h -0.0504 l -0.632269,0.210756 q -0.334462,-0.13745 -0.366533,-0.265736 v -0.155777 q 0,-0.13745 0.366533,-0.210756 l -0.0504,-0.261155 0.155777,-0.471911 -0.155777,-0.526891 q 0.105379,-0.201593 0.105379,-0.57729 v -0.311553 l -0.105379,-0.788046 0.105379,-0.577289 -0.105379,-0.57729 0.105379,-0.737647 q -0.0046,-0.178685 -0.57729,-0.678086 0.595616,-0.371115 1.415734,-0.371115 z m 2.309158,1.837247 h 0.160358 q 0.155776,0.641432 0.311553,2.258759 v 0.210757 l -0.261155,0.261154 h -0.0504 q -0.38486,-0.274899 -0.682668,-0.943822 l -0.210756,-0.210757 v -0.05498 q 0,-0.288645 0.416931,-0.471912 l 0.105378,-0.206175 -0.0504,-0.05498 v -0.0504 z m 1.10418,2.625292 q 0.13745,0 0.261155,0.733066 l -0.105378,0.316135 v 0.838444 l -0.155777,0.160358 -0.843025,-0.160358 -0.943823,0.105378 v -0.0504 q 0.06414,-0.471911 0.160358,-0.471911 l 0.261155,0.0504 q 0,-0.210756 0.210756,-0.210756 l 0.155777,0.05498 q 0.316135,-0.251992 0.632269,-0.998803 z m 0.710158,2.744416 h 0.0504 l 0.155777,0.155776 v 0.421513 l -0.105378,0.105379 h -0.416932 l -0.471911,-0.0504 -0.05498,0.0504 -0.522309,-0.0504 h -0.05498 l -1.360754,0.0504 -0.05498,-0.0504 h -0.0504 l -0.265737,0.0504 -0.522309,-0.105379 -0.421513,0.105379 -0.366533,-0.0504 -0.316135,0.0504 -0.210756,-0.0504 -0.416932,0.0504 -0.210756,-0.155777 0.0504,-0.05498 v -0.155776 l -0.0504,-0.160359 h 0.0504 l 0.265737,-0.100796 h 0.210756 q 0.52231,0 0.52231,0.155776 v 0.0504 h 0.105378 v -0.0504 l -0.0504,-0.05498 v -0.0504 l 0.155776,-0.0504 0.57729,0.0504 0.0504,-0.0504 h 0.05498 l 0.627688,0.100796 0.421513,-0.100796 0.0504,0.0504 0.265736,-0.0504 h 0.0504 l 0.155776,0.100796 0.210757,-0.0504 0.05498,0.0504 h 0.0504 l 0.05498,-0.0504 h 0.0504 l 0.316135,0.105378 q 0.233664,-0.105378 0.682667,-0.105378 h 0.52231 z"
         inkscape:connector-curvature="0" />
    </g>
  </g>
</svg>
