<?xml version="1.0" encoding="UTF-8" standalone="no"?>
<!-- Created with Inkscape (http://www.inkscape.org/) -->

<svg
   xmlns:dc="http://purl.org/dc/elements/1.1/"
   xmlns:cc="http://creativecommons.org/ns#"
   xmlns:rdf="http://www.w3.org/1999/02/22-rdf-syntax-ns#"
   xmlns:svg="http://www.w3.org/2000/svg"
   xmlns="http://www.w3.org/2000/svg"
   xmlns:xlink="http://www.w3.org/1999/xlink"
   xmlns:sodipodi="http://sodipodi.sourceforge.net/DTD/sodipodi-0.dtd"
   xmlns:inkscape="http://www.inkscape.org/namespaces/inkscape"
   width="256"
   height="256"
   viewBox="0 0 67.733335 67.733333"
   version="1.1"
   id="svg7448"
   inkscape:version="0.92.3 (2405546, 2018-03-11)"
   sodipodi:docname="classroom-mountmode-override.svg">
  <defs
     id="defs7442">
    <linearGradient
       gradientTransform="matrix(0.19734331,0,0,-0.19823545,166.77022,195.82034)"
       y2="666.56842"
       x2="-460.2334"
       y1="370.53909"
       x1="-460.2334"
       gradientUnits="userSpaceOnUse"
       id="rect3438-6-0-6-7-2_60_-80">
      <stop
         id="stop29185"
         style="stop-color:#000000"
         offset="0" />
      <stop
         id="stop29187"
         style="stop-color:#000000;stop-opacity:0.5882"
         offset="1" />
    </linearGradient>
    <linearGradient
       gradientTransform="matrix(0.19561848,0,0,-0.19662959,164.39189,195.04925)"
       y2="668.2168"
       x2="-452.13281"
       y1="371.53421"
       x1="-452.13281"
       gradientUnits="userSpaceOnUse"
       id="rect3438-6-0-1-1_60_-262">
      <stop
         id="stop29191"
         style="stop-color:#000000"
         offset="0" />
      <stop
         id="stop29193"
         style="stop-color:#000000;stop-opacity:0.5882"
         offset="1" />
    </linearGradient>
    <linearGradient
       gradientTransform="matrix(0.19817598,0,0,-0.19817598,-75.834945,48.799836)"
       y2="-366.80859"
       x2="765.62701"
       y1="-74.489304"
       x1="765.62701"
       gradientUnits="userSpaceOnUse"
       id="XMLID_140_-06">
      <stop
         id="stop29198"
         style="stop-color:#a9cae7;stop-opacity:1"
         offset="0" />
      <stop
         id="stop29204"
         style="stop-color:#7baedb;stop-opacity:1"
         offset="0.38028651" />
      <stop
         id="stop29206"
         style="stop-color:#2c60a0;stop-opacity:1"
         offset="1" />
    </linearGradient>
    <linearGradient
       id="linearGradient7404"
       gradientUnits="userSpaceOnUse"
       x1="-460.2334"
       y1="370.53909"
       x2="-460.2334"
       y2="666.56842"
       gradientTransform="matrix(0.9954,0,0,-0.9999,607.6064,666.5718)">
      <stop
         offset="0"
         style="stop-color:#000000"
         id="stop7400" />
      <stop
         offset="1"
         style="stop-color:#000000;stop-opacity:0.5882"
         id="stop7402" />
    </linearGradient>
    <linearGradient
       id="linearGradient7411"
       gradientUnits="userSpaceOnUse"
       x1="-452.13281"
       y1="371.53421"
       x2="-452.13281"
       y2="668.2168"
       gradientTransform="matrix(0.9867,0,0,-0.9918,595.6101,662.6824)">
      <stop
         offset="0"
         style="stop-color:#000000"
         id="stop7407" />
      <stop
         offset="1"
         style="stop-color:#000000;stop-opacity:0.5882"
         id="stop7409" />
    </linearGradient>
    <linearGradient
       gradientTransform="matrix(0.9996,0,0,-0.9996,-616.0945,-74.9999)"
       y2="-366.80859"
       x2="765.62701"
       y1="-74.489304"
       x1="765.62701"
       gradientUnits="userSpaceOnUse"
       id="linearGradient7424">
      <stop
         id="stop7414"
         style="stop-color:#006cf9;stop-opacity:1"
         offset="0" />
      <stop
         id="stop7416"
         style="stop-color:#0053c2;stop-opacity:1"
         offset="0.3475" />
      <stop
         id="stop7418"
         style="stop-color:#0047a6;stop-opacity:1"
         offset="0.6063" />
      <stop
         id="stop7420"
         style="stop-color:#003884;stop-opacity:1"
         offset="0.8413" />
      <stop
         id="stop7422"
         style="stop-color:#003580;stop-opacity:1"
         offset="1" />
    </linearGradient>
    <linearGradient
       x1="12.274"
       y1="32.416"
       x2="35.391"
       gradientUnits="userSpaceOnUse"
       y2="14.203"
       id="linearGradient3435">
      <stop
         offset="0"
         style="stop-color:#ffffc8"
         id="stop3437" />
      <stop
         offset="1"
         style="stop-color:#9a91ef;stop-opacity:0"
         id="stop3439" />
    </linearGradient>
    <linearGradient
       id="linearGradient4236">
      <stop
         offset="0"
         style="stop-color:#ffffff;stop-opacity:.32673"
         id="stop4238" />
      <stop
         offset="1"
         style="stop-color:#ffffff;stop-opacity:.60396"
         id="stop4240" />
    </linearGradient>
    <linearGradient
       x1="48"
       y1="72"
       x2="48"
       y2="24"
       id="linearGradient3856"
       xlink:href="#linearGradient4081"
       gradientUnits="userSpaceOnUse"
       gradientTransform="matrix(0.26458333,0,0,0.26458333,128.37329,136.73687)" />
    <linearGradient
       id="linearGradient4081">
      <stop
         id="stop4083"
         style="stop-color:#aaaaaa;stop-opacity:1"
         offset="0" />
      <stop
         id="stop4085"
         style="stop-color:#f0f0f0;stop-opacity:1"
         offset="1" />
    </linearGradient>
    <linearGradient
       x1="27"
       y1="48"
       x2="69"
       y2="48"
       id="linearGradient3940"
       xlink:href="#linearGradient4081"
       gradientUnits="userSpaceOnUse"
       gradientTransform="matrix(0,-0.26458333,0.26458333,0,101.91495,163.1952)" />
    <filter
       inkscape:collect="always"
       style="color-interpolation-filters:sRGB"
       id="filter902"
       x="-0.030578764"
       width="1.0611575"
       y="-0.043757697"
       height="1.0875154">
      <feGaussianBlur
         inkscape:collect="always"
         stdDeviation="0.68326965"
         id="feGaussianBlur904" />
    </filter>
  </defs>
  <sodipodi:namedview
     id="base"
     pagecolor="#ffffff"
     bordercolor="#666666"
     borderopacity="1.0"
     inkscape:pageopacity="0.0"
     inkscape:pageshadow="2"
     inkscape:zoom="1.2929688"
     inkscape:cx="0.96779475"
     inkscape:cy="173.78398"
     inkscape:document-units="mm"
     inkscape:current-layer="g986"
     showgrid="false"
     fit-margin-top="0"
     fit-margin-left="0"
     fit-margin-right="0"
     fit-margin-bottom="0"
     inkscape:window-width="1920"
     inkscape:window-height="837"
     inkscape:window-x="0"
     inkscape:window-y="30"
     inkscape:window-maximized="1"
     units="px"
     showguides="true"
     inkscape:guide-bbox="true">
    <sodipodi:guide
       position="18.485328,63.172762"
       orientation="0,1"
       id="guide883"
       inkscape:locked="false" />
    <sodipodi:guide
       position="26.19295,5.7297077"
       orientation="0,1"
       id="guide885"
       inkscape:locked="false" />
  </sodipodi:namedview>
  <metadata
     id="metadata7445">
    <rdf:RDF>
      <cc:Work
         rdf:about="">
        <dc:format>image/svg+xml</dc:format>
        <dc:type
           rdf:resource="http://purl.org/dc/dcmitype/StillImage" />
        <dc:title />
      </cc:Work>
    </rdf:RDF>
  </metadata>
  <g
     inkscape:label="Capa 1"
     inkscape:groupmode="layer"
     id="layer1"
     transform="translate(-42.060823,-59.097487)">
    <g
       id="g986"
       transform="matrix(1.1408226,0,0,1.1352794,-10.692307,-12.576135)">
      <g
         transform="matrix(3.854213,0,0,3.854213,38.115617,36.877322)"
         id="g6071">
        <g
           style="fill:#666666;stroke:#ff0000;stroke-width:0.4990972;stroke-miterlimit:4;stroke-dasharray:none;stroke-opacity:0"
           transform="matrix(0.02325627,0,0,0.02325627,0.01676398,8.5624549)"
           id="Layer_2">
          <path
             style="fill:#666666;fill-opacity:1;stroke:#ff0000;stroke-width:0.4990972;stroke-miterlimit:4;stroke-dasharray:none;stroke-opacity:0"
             inkscape:connector-curvature="0"
             d="M 439.282,5 H 362 v 191 h -48 v 157 h 48 v 157 h 77.282 c 4.339,0 7.718,-3.417 7.718,-7.756 V 12.855 C 447,8.516 443.621,5 439.282,5 Z"
             id="path2950" />
        </g>
        <g
           transform="matrix(0.02325627,0,0,0.02325627,0.01676398,8.5624549)"
           id="Layer_3"
           style="fill:#b3b3b3;fill-opacity:1;stroke:#ff0000;stroke-width:0.4990972;stroke-miterlimit:4;stroke-dasharray:none;stroke-opacity:0">
          <path
             style="fill:#b3b3b3;fill-opacity:1;stroke:#ff0000;stroke-width:0.4990972;stroke-miterlimit:4;stroke-dasharray:none;stroke-opacity:0"
             inkscape:connector-curvature="0"
             d="M 363.636,195.842 H 145.402 V 38.714 h 218.235 v 157.128 z m 0,157.129 H 145.402 v 149.272 c 0,4.339 3.517,7.856 7.856,7.856 H 363.636 Z M 315.586,195.842 H 105.208 c -4.339,0 -7.856,3.517 -7.856,7.856 v 141.416 c 0,4.339 3.517,7.856 7.856,7.856 h 210.378 z"
             id="path2953" />
        </g>
        <g
           style="stroke:#ff0000;stroke-width:0.4990972;stroke-miterlimit:4;stroke-dasharray:none;stroke-opacity:0"
           transform="matrix(0.02325627,0,0,0.02325627,0.01676398,8.5624549)"
           id="Layer_4">
          <path
             style="fill:#f9e7c0;stroke:#ff0000;stroke-width:0.4990972;stroke-miterlimit:4;stroke-dasharray:none;stroke-opacity:0"
             inkscape:connector-curvature="0"
             d="m 281.832,71.412 v 16.731 c 0,1.988 -1.612,3.6 -3.6,3.6 h -47.427 c -1.988,0 -3.6,-1.612 -3.6,-3.6 V 71.412 c 0,-1.988 1.612,-3.6 3.6,-3.6 h 47.427 c 1.989,0 3.6,1.611 3.6,3.6 z m -3.6,311.748 h -47.427 c -1.988,0 -3.6,1.612 -3.6,3.6 v 16.731 c 0,1.988 1.612,3.6 3.6,3.6 h 47.427 c 1.988,0 3.6,-1.612 3.6,-3.6 V 386.76 c 0,-1.988 -1.611,-3.6 -3.6,-3.6 z m -48.05,-158.22 h -47.427 c -1.988,0 -3.6,1.612 -3.6,3.6 v 16.731 c 0,1.988 1.612,3.6 3.6,3.6 h 47.427 c 1.988,0 3.6,-1.612 3.6,-3.6 V 228.54 c 0,-1.988 -1.611,-3.6 -3.6,-3.6 z"
             id="path2956" />
        </g>
        <g
           style="fill:#803300;fill-opacity:1;stroke:#ff0000;stroke-width:0.4990972;stroke-miterlimit:4;stroke-dasharray:none;stroke-opacity:0"
           transform="matrix(0.02325627,0,0,0.02325627,0.01676398,8.5624549)"
           id="Layer_5">
          <path
             style="fill:#803300;fill-opacity:1;stroke:#ff0000;stroke-width:0.4990972;stroke-miterlimit:4;stroke-dasharray:none;stroke-opacity:0"
             inkscape:connector-curvature="0"
             d="m 276.124,125.461 h -43.21 c -4.52,0 -8.184,-3.664 -8.184,-8.184 0,-4.52 3.664,-8.184 8.184,-8.184 h 43.21 c 4.52,0 8.184,3.664 8.184,8.184 0,4.52 -3.664,8.184 -8.184,8.184 z m 8.184,306.075 c 0,-4.52 -3.664,-8.184 -8.184,-8.184 h -43.21 c -4.52,0 -8.184,3.664 -8.184,8.184 0,4.52 3.664,8.184 8.184,8.184 h 43.21 c 4.52,0 8.184,-3.664 8.184,-8.184 z m -48.05,-157.129 c 0,-4.52 -3.664,-8.184 -8.184,-8.184 h -43.21 c -4.52,0 -8.184,3.664 -8.184,8.184 0,4.52 3.664,8.184 8.184,8.184 h 43.21 c 4.52,0 8.184,-3.664 8.184,-8.184 z"
             id="path2959" />
        </g>
        <g
           style="fill:#803300;stroke:#ff0000;stroke-width:0.4990972;stroke-miterlimit:4;stroke-dasharray:none;stroke-opacity:0"
           transform="matrix(0.02325627,0,0,0.02325627,0.01676398,8.5624549)"
           id="Layer_6">
          <path
             style="fill:#803300;fill-opacity:1;stroke:#ff0000;stroke-width:0.4990972;stroke-miterlimit:4;stroke-dasharray:none;stroke-opacity:0"
             inkscape:connector-curvature="0"
             d="M 363.636,38.714 H 145.402 V 12.855 c 0,-4.339 3.517,-7.856 7.856,-7.856 H 363.636 Z M 316,196 h 48 V 185 H 145 v 11 z M 145,353 v 11 h 219 v -11"
             id="path2962" />
        </g>
        <g
           style="stroke:#ff0000;stroke-width:0.4990972;stroke-miterlimit:4;stroke-dasharray:none;stroke-opacity:0"
           transform="matrix(0.02325627,0,0,0.02325627,0.01676398,8.5624549)"
           id="Layer_7">
          <path
             style="fill:#ffb636;stroke:#ff0000;stroke-width:0.4990972;stroke-miterlimit:4;stroke-dasharray:none;stroke-opacity:0"
             inkscape:connector-curvature="0"
             d="M 271.752,171 H 170 v -7.668 C 170,158.993 166.902,155 162.563,155 h -35.5 c -4.339,0 -8.063,3.993 -8.063,8.332 v 7.42 8.729 V 196 H 280 V 178.608 C 280,174.269 276.091,171 271.752,171 Z"
             id="path2965" />
        </g>
        <path
           id="path2953-8"
           d="m 12.264943,16.952392 h 5.075309 v 3.294455 c 0,0.09576 -0.08179,0.173383 -0.182701,0.173383 h -4.892608 z"
           inkscape:connector-curvature="0"
           style="fill:#b3b3b3;fill-opacity:1;stroke:#ff0000;stroke-width:0.01160714;stroke-miterlimit:4;stroke-dasharray:none;stroke-opacity:0"
           sodipodi:nodetypes="ccsscc" />
        <g
           id="g3631"
           style="stroke:#ff0000;stroke-width:0.11707878;stroke-miterlimit:4;stroke-dasharray:none;stroke-opacity:0"
           transform="matrix(0.09913956,0,0,0.09913956,29.475277,-0.58773434)">
          <g
             style="fill:#666666;fill-opacity:1;stroke:#ff0000;stroke-width:0.89476335;stroke-miterlimit:4;stroke-dasharray:none;stroke-opacity:0"
             id="Layer_2-5"
             transform="matrix(-0.23458112,0,0,0.07298724,-87.825738,174.65622)">
            <path
               sodipodi:nodetypes="sccccccssss"
               id="path2950-7"
               d="M 439.282,5 H 362 v 191 0 l -1,157 h 1 v 157 h 77.282 c 4.339,0 7.718,-3.417 7.718,-7.756 V 12.855 C 447,8.516 443.621,5 439.282,5 Z"
               inkscape:connector-curvature="0"
               style="fill:#666666;fill-opacity:1;stroke:#ff0000;stroke-width:0.89476335;stroke-miterlimit:4;stroke-dasharray:none;stroke-opacity:0" />
          </g>
          <g
             id="Layer_4-1"
             transform="matrix(-0.23458112,0,0,0.23458112,-87.825738,92.243346)"
             style="stroke:#ff0000;stroke-width:0.4990972;stroke-miterlimit:4;stroke-dasharray:none;stroke-opacity:0">
            <path
               sodipodi:nodetypes="sssssssss"
               id="path2956-9"
               d="m 278.232,383.16 h -47.427 c -1.988,0 -3.6,1.612 -3.6,3.6 v 16.731 c 0,1.988 1.612,3.6 3.6,3.6 h 47.427 c 1.988,0 3.6,-1.612 3.6,-3.6 V 386.76 c 0,-1.988 -1.611,-3.6 -3.6,-3.6 z"
               inkscape:connector-curvature="0"
               style="fill:#f9e7c0;stroke:#ff0000;stroke-width:0.4990972;stroke-miterlimit:4;stroke-dasharray:none;stroke-opacity:0" />
          </g>
          <g
             id="Layer_5-9"
             transform="matrix(-0.23458112,0,0,0.23458112,-87.825738,92.243346)"
             style="fill:#803300;fill-opacity:1;stroke:#ff0000;stroke-width:0.4990972;stroke-miterlimit:4;stroke-dasharray:none;stroke-opacity:0">
            <path
               sodipodi:nodetypes="sssssss"
               id="path2959-7"
               d="m 284.308,431.536 c 0,-4.52 -3.664,-8.184 -8.184,-8.184 h -43.21 c -4.52,0 -8.184,3.664 -8.184,8.184 0,4.52 3.664,8.184 8.184,8.184 h 43.21 c 4.52,0 8.184,-3.664 8.184,-8.184 z"
               inkscape:connector-curvature="0"
               style="fill:#803300;fill-opacity:1;stroke:#ff0000;stroke-width:0.4990972;stroke-miterlimit:4;stroke-dasharray:none;stroke-opacity:0" />
          </g>
          <g
             style="fill:#803300;fill-opacity:1;stroke:#ff0000;stroke-width:0.4995763;stroke-miterlimit:4;stroke-dasharray:none;stroke-opacity:0"
             id="Layer_6-8"
             transform="matrix(-0.23413141,0,0,0.23458112,-88.458596,92.243346)">
            <path
               sodipodi:nodetypes="cccc"
               id="path2962-2"
               d="m 144.98434,353 v 11.00391 H 364 V 353"
               inkscape:connector-curvature="0"
               style="fill:#803300;fill-opacity:1;stroke:#ff0000;stroke-width:0.4995763;stroke-miterlimit:4;stroke-dasharray:none;stroke-opacity:0" />
          </g>
          <g
             id="Layer_7-5"
             transform="matrix(-0.23458112,0,0,0.23458112,-100.67413,131.63226)"
             style="stroke:#ff0000;stroke-width:0.4990972;stroke-miterlimit:4;stroke-dasharray:none;stroke-opacity:0">
            <path
               id="path2965-3"
               d="M 271.752,171 H 170 v -7.668 C 170,158.993 166.902,155 162.563,155 h -35.5 c -4.339,0 -8.063,3.993 -8.063,8.332 v 7.42 8.729 V 196 H 280 V 178.608 C 280,174.269 276.091,171 271.752,171 Z"
               inkscape:connector-curvature="0"
               style="fill:#ffb636;stroke:#ff0000;stroke-width:0.4990972;stroke-miterlimit:4;stroke-dasharray:none;stroke-opacity:0" />
          </g>
        </g>
      </g>
      <g
         transform="matrix(0.91306261,0,0,0.91306261,77.347863,13.164853)"
         id="g939">
        <g
           aria-label="OVERRIDE"
           transform="rotate(-29.720245,-46.600648,158.51808)"
           style="font-style:normal;font-weight:normal;font-size:14.35841751px;line-height:1.25;font-family:sans-serif;letter-spacing:0px;word-spacing:0px;fill:#000000;fill-opacity:1;stroke:none;stroke-width:0.35896063;filter:url(#filter902)"
           id="text2520">
          <path
             inkscape:connector-curvature="0"
             d="m 3.6758974,119.07747 q 0,1.59378 -0.5456199,2.78553 -0.5312615,1.17739 -1.5937844,1.83788 -1.04816444,0.66049 -2.5845151,0.66049 -1.5937844,0 -2.6563073,-0.66049 -1.0481644,-0.66049 -1.5650675,-1.85224 -0.516903,-1.19175 -0.516903,-2.78553 0,-1.56507 0.516903,-2.74246 0.5169031,-1.19175 1.5650675,-1.85223 1.0625229,-0.66049 2.6706657,-0.66049 1.53635068,0 2.5845152,0.66049 1.0481644,0.64612 1.5794259,1.83787 0.5456199,1.17739 0.5456199,2.77118 z m -8.0981475,0 q 0,1.93838 0.8184298,3.05834 0.8184298,1.1056 2.5557983,1.1056 1.73736851,0 2.5414399,-1.1056 0.8184298,-1.11996 0.8184298,-3.05834 0,-1.93839 -0.8040714,-3.02963 -0.80407137,-1.1056 -2.5414399,-1.1056 -1.7517269,0 -2.5701567,1.1056 -0.8184298,1.09124 -0.8184298,3.02963 z"
             style="font-style:normal;font-variant:normal;font-weight:normal;font-stretch:normal;font-family:'[TOP_SECRET]';-inkscape-font-specification:'[TOP_SECRET]';fill:#000000;stroke-width:0.35896063"
             id="path904" />
          <path
             inkscape:connector-curvature="0"
             d="M 13.030182,113.96587 9.3687851,124.21778 H 8.0765276 L 4.4151311,113.96587 h 1.3496912 l 2.3117053,6.57616 q 0.2297346,0.63177 0.3733188,1.19174 0.1579426,0.54562 0.2728099,1.04817 0.100509,-0.50255 0.2584516,-1.06252 0.1579426,-0.55998 0.3876772,-1.20611 l 2.2973469,-6.54744 z"
             style="font-style:normal;font-variant:normal;font-weight:normal;font-stretch:normal;font-family:'[TOP_SECRET]';-inkscape-font-specification:'[TOP_SECRET]';fill:#000000;stroke-width:0.35896063"
             id="path906" />
          <path
             inkscape:connector-curvature="0"
             d="M 20.146349,124.21778 H 14.41734 v -10.25191 h 5.729009 v 1.13432 h -4.436751 v 3.20192 h 4.178299 v 1.11996 h -4.178299 v 3.6614 h 4.436751 z"
             style="font-style:normal;font-variant:normal;font-weight:normal;font-stretch:normal;font-family:'[TOP_SECRET]';-inkscape-font-specification:'[TOP_SECRET]';fill:#000000;stroke-width:0.35896063"
             id="path908" />
          <path
             inkscape:connector-curvature="0"
             d="m 25.238426,113.96587 q 1.909669,0 2.81425,0.73228 0.918939,0.71792 0.918939,2.18248 0,0.81843 -0.301527,1.36405 -0.301527,0.54562 -0.775355,0.87586 -0.459469,0.33025 -0.976372,0.50255 l 2.81425,4.59469 h -1.507634 l -2.484006,-4.23573 h -2.038896 v 4.23573 h -1.292257 v -10.25191 z m -0.07179,1.11996 h -1.464559 v 3.80498 h 1.536351 q 1.249182,0 1.823519,-0.48819 0.574337,-0.50254 0.574337,-1.46456 0,-1.00509 -0.603054,-1.42148 -0.603053,-0.43075 -1.866594,-0.43075 z"
             style="font-style:normal;font-variant:normal;font-weight:normal;font-stretch:normal;font-family:'[TOP_SECRET]';-inkscape-font-specification:'[TOP_SECRET]';fill:#000000;stroke-width:0.35896063"
             id="path910" />
          <path
             inkscape:connector-curvature="0"
             d="m 34.156349,113.96587 q 1.909669,0 2.81425,0.73228 0.918938,0.71792 0.918938,2.18248 0,0.81843 -0.301526,1.36405 -0.301527,0.54562 -0.775355,0.87586 -0.459469,0.33025 -0.976372,0.50255 l 2.81425,4.59469 H 37.1429 l -2.484006,-4.23573 h -2.038896 v 4.23573 h -1.292257 v -10.25191 z m -0.07179,1.11996 H 32.62 v 3.80498 h 1.536351 q 1.249182,0 1.823519,-0.48819 0.574337,-0.50254 0.574337,-1.46456 0,-1.00509 -0.603054,-1.42148 -0.603053,-0.43075 -1.866594,-0.43075 z"
             style="font-style:normal;font-variant:normal;font-weight:normal;font-stretch:normal;font-family:'[TOP_SECRET]';-inkscape-font-specification:'[TOP_SECRET]';fill:#000000;stroke-width:0.35896063"
             id="path912" />
          <path
             inkscape:connector-curvature="0"
             d="m 43.131706,124.21778 h -3.704472 v -0.74664 l 1.206107,-0.27281 v -8.19865 l -1.206107,-0.28717 v -0.74664 h 3.704472 v 0.74664 l -1.206107,0.28717 v 8.19865 l 1.206107,0.27281 z"
             style="font-style:normal;font-variant:normal;font-weight:normal;font-stretch:normal;font-family:'[TOP_SECRET]';-inkscape-font-specification:'[TOP_SECRET]';fill:#000000;stroke-width:0.35896063"
             id="path914" />
          <path
             inkscape:connector-curvature="0"
             d="m 53.338298,118.99132 q 0,2.59887 -1.421483,3.91985 -1.407125,1.30661 -3.934207,1.30661 h -2.857325 v -10.25191 h 3.158852 q 1.536351,0 2.670666,0.57434 1.148673,0.57433 1.766085,1.69429 0.617412,1.11996 0.617412,2.75682 z m -1.36405,0.0431 q 0,-2.05325 -1.019447,-3.00091 -1.005089,-0.96201 -2.857325,-0.96201 h -1.679935 v 8.04071 h 1.392766 q 4.163941,0 4.163941,-4.07779 z"
             style="font-style:normal;font-variant:normal;font-weight:normal;font-stretch:normal;font-family:'[TOP_SECRET]';-inkscape-font-specification:'[TOP_SECRET]';fill:#000000;stroke-width:0.35896063"
             id="path916" />
          <path
             inkscape:connector-curvature="0"
             d="M 61.342668,124.21778 H 55.61366 v -10.25191 h 5.729008 v 1.13432 h -4.436751 v 3.20192 h 4.1783 v 1.11996 h -4.1783 v 3.6614 h 4.436751 z"
             style="font-style:normal;font-variant:normal;font-weight:normal;font-stretch:normal;font-family:'[TOP_SECRET]';-inkscape-font-specification:'[TOP_SECRET]';fill:#000000;stroke-width:0.35896063"
             id="path918" />
        </g>
        <g
           aria-label="OVERRIDE"
           transform="rotate(-29.720245)"
           style="font-style:normal;font-weight:normal;font-size:14.35841751px;line-height:1.25;font-family:sans-serif;letter-spacing:0px;word-spacing:0px;fill:#000000;fill-opacity:1;stroke:none;stroke-width:0.35896063"
           id="text2520-8">
          <path
             inkscape:connector-curvature="0"
             d="m -69.172537,74.899398 q 0,1.593784 -0.545619,2.785533 -0.531262,1.17739 -1.593785,1.837877 -1.048164,0.660487 -2.584515,0.660487 -1.593784,0 -2.656307,-0.660487 -1.048165,-0.660487 -1.565068,-1.852236 -0.516903,-1.191749 -0.516903,-2.785533 0,-1.565067 0.516903,-2.742458 0.516903,-1.191748 1.565068,-1.852235 1.062523,-0.660488 2.670665,-0.660488 1.536351,0 2.584516,0.660488 1.048164,0.646128 1.579426,1.837877 0.545619,1.17739 0.545619,2.771175 z m -8.098147,0 q 0,1.938386 0.81843,3.058342 0.818429,1.105599 2.555798,1.105599 1.737369,0 2.54144,-1.105599 0.81843,-1.119956 0.81843,-3.058342 0,-1.938387 -0.804072,-3.029627 -0.804071,-1.105598 -2.54144,-1.105598 -1.751727,0 -2.570156,1.105598 -0.81843,1.09124 -0.81843,3.029627 z"
             style="font-style:normal;font-variant:normal;font-weight:normal;font-stretch:normal;font-family:'[TOP_SECRET]';-inkscape-font-specification:'[TOP_SECRET]';fill:#ff0000;stroke-width:0.35896063"
             id="path887" />
          <path
             inkscape:connector-curvature="0"
             d="m -59.818252,69.787801 -3.661397,10.25191 h -1.292257 l -3.661397,-10.25191 h 1.349691 l 2.311706,6.576155 q 0.229734,0.63177 0.373318,1.191749 0.157943,0.54562 0.27281,1.048164 0.100509,-0.502544 0.258452,-1.062523 0.157942,-0.559978 0.387677,-1.206107 l 2.297347,-6.547438 z"
             style="font-style:normal;font-variant:normal;font-weight:normal;font-stretch:normal;font-family:'[TOP_SECRET]';-inkscape-font-specification:'[TOP_SECRET]';fill:#ff0000;stroke-width:0.35896063"
             id="path889" />
          <path
             inkscape:connector-curvature="0"
             d="m -52.702085,80.039711 h -5.729009 v -10.25191 h 5.729009 v 1.134315 h -4.436751 v 3.201927 h 4.178299 V 75.244 h -4.178299 v 3.661396 h 4.436751 z"
             style="font-style:normal;font-variant:normal;font-weight:normal;font-stretch:normal;font-family:'[TOP_SECRET]';-inkscape-font-specification:'[TOP_SECRET]';fill:#ff0000;stroke-width:0.35896063"
             id="path891" />
          <path
             inkscape:connector-curvature="0"
             d="m -47.610008,69.787801 q 1.90967,0 2.81425,0.732279 0.918939,0.717921 0.918939,2.18248 0,0.818429 -0.301527,1.364049 -0.301527,0.54562 -0.775355,0.875864 -0.459469,0.330243 -0.976372,0.502544 l 2.81425,4.594694 h -1.507634 l -2.484006,-4.235733 h -2.038896 v 4.235733 h -1.292257 v -10.25191 z m -0.07179,1.119956 h -1.464559 v 3.804981 h 1.536351 q 1.249182,0 1.823519,-0.488186 0.574337,-0.502545 0.574337,-1.464559 0,-1.005089 -0.603054,-1.421483 -0.603053,-0.430753 -1.866594,-0.430753 z"
             style="font-style:normal;font-variant:normal;font-weight:normal;font-stretch:normal;font-family:'[TOP_SECRET]';-inkscape-font-specification:'[TOP_SECRET]';fill:#ff0000;stroke-width:0.35896063"
             id="path893" />
          <path
             inkscape:connector-curvature="0"
             d="m -38.692085,69.787801 q 1.909669,0 2.81425,0.732279 0.918939,0.717921 0.918939,2.18248 0,0.818429 -0.301527,1.364049 -0.301527,0.54562 -0.775355,0.875864 -0.459469,0.330243 -0.976372,0.502544 l 2.81425,4.594694 h -1.507634 l -2.484006,-4.235733 h -2.038896 v 4.235733 h -1.292257 v -10.25191 z m -0.07179,1.119956 h -1.464559 v 3.804981 h 1.536351 q 1.249182,0 1.823519,-0.488186 0.574337,-0.502545 0.574337,-1.464559 0,-1.005089 -0.603054,-1.421483 -0.603053,-0.430753 -1.866594,-0.430753 z"
             style="font-style:normal;font-variant:normal;font-weight:normal;font-stretch:normal;font-family:'[TOP_SECRET]';-inkscape-font-specification:'[TOP_SECRET]';fill:#ff0000;stroke-width:0.35896063"
             id="path895" />
          <path
             inkscape:connector-curvature="0"
             d="M -29.716728,80.039711 H -33.4212 v -0.746638 l 1.206107,-0.27281 V 70.821607 L -33.4212,70.534439 v -0.746638 h 3.704472 v 0.746638 l -1.206107,0.287168 v 8.198656 l 1.206107,0.27281 z"
             style="font-style:normal;font-variant:normal;font-weight:normal;font-stretch:normal;font-family:'[TOP_SECRET]';-inkscape-font-specification:'[TOP_SECRET]';fill:#ff0000;stroke-width:0.35896063"
             id="path897" />
          <path
             inkscape:connector-curvature="0"
             d="m -19.510136,74.813247 q 0,2.598874 -1.421483,3.919848 -1.407125,1.306616 -3.934207,1.306616 h -2.857325 v -10.25191 h 3.158852 q 1.536351,0 2.670666,0.574337 1.148673,0.574336 1.766085,1.694293 0.617412,1.119956 0.617412,2.756816 z m -1.36405,0.04308 q 0,-2.053253 -1.019447,-3.000909 -1.005089,-0.962014 -2.857325,-0.962014 h -1.679935 v 8.040714 h 1.392766 q 4.163941,0 4.163941,-4.077791 z"
             style="font-style:normal;font-variant:normal;font-weight:normal;font-stretch:normal;font-family:'[TOP_SECRET]';-inkscape-font-specification:'[TOP_SECRET]';fill:#ff0000;stroke-width:0.35896063"
             id="path899" />
          <path
             inkscape:connector-curvature="0"
             d="m -11.505766,80.039711 h -5.729008 v -10.25191 h 5.729008 v 1.134315 h -4.436751 v 3.201927 h 4.1783 V 75.244 h -4.1783 v 3.661396 h 4.436751 z"
             style="font-style:normal;font-variant:normal;font-weight:normal;font-stretch:normal;font-family:'[TOP_SECRET]';-inkscape-font-specification:'[TOP_SECRET]';fill:#ff0000;stroke-width:0.35896063"
             id="path901" />
        </g>
      </g>
    </g>
  </g>
</svg>
